<svg version="1.0" xmlns="http://www.w3.org/2000/svg" width="8666.667" height="6666.667" viewBox="0 0 6500 5000"><path d="M3775.7 470c-24.5 2.8-49.8 14.8-62.6 29.7-5.3 6.2-10.7 16.5-12.5 23.9-.8 3.3-2.4 15.1-3.6 26.4-4.8 48.2-8.4 61.1-20.1 73.5-11.8 12.5-27.6 16.6-62.4 16.4-14.8-.2-20.9.2-27.5 1.6-44.3 9.1-81.1 46.5-94.5 96-10.4 38.4-6.1 89.7 9.7 116.9 8.2 14.1 17.7 21.8 39 31.9 11.8 5.6 17.1 9.8 19.4 15.4 2 4.6 1.7 14.7-.6 23.7-12.8 50.2-12.4 81 1.4 97.9 5.1 6.2 13 11.9 20.3 14.7 17.9 6.7 49.2 6.6 74.8-.1 4.4-1.2 8.4-2.5 8.8-2.9.7-.6 6.2-19.9 26.3-92 15.7-56.2 24.7-86.6 27.1-91.3 3.8-7.6 12.6-16.2 20.2-20 6.1-3 7.4-3.2 16.6-3.2 8.6 0 10.7.4 15 2.5 10.8 5.3 19 17.1 22.1 32 2.1 10 1.4 32.6-1.5 46.1-4 18.5-16.1 57.9-28.4 91.9-3.3 9.2-3.3 9.7-2 14.5 5.6 20.5 7.5 32.9 8 53.7l.5 20.6 2.4.6c1.3.4 2.4 1 2.4 1.5 0 .4-1.3 4.1-3 8-4.4 10.9-10.6 30.4-13.2 42.1-1.9 8.8-2.3 13.2-2.2 27.5 0 15.1.3 18.1 2.7 26.8 3.4 12.8 10.2 26.4 17.7 35.7 3.4 4.1 8.6 10.7 11.6 14.7 9.4 12.3 21 20.2 37.7 25.8l10.6 3.5 84.3 8c46.4 4.4 91.3 8.6 99.8 9.4 8.5.9 28.6 2.7 44.5 4.2 16 1.4 29.6 2.8 30.3 3 .9.2.3 2.3-2.2 7.1-15.9 31.8-19.4 70.2-11.5 127.7 1.8 13.3 8 50.3 9.4 56.4.5 1.9.2 2.3-1.2 1.8-2.7-.8-46.6-6.3-64.3-8-69.7-6.8-148.3-7.6-218-2-211.8 16.7-410.2 85.4-576.5 199.6-56.6 38.9-99.7 74.9-151.1 126.2-40.4 40.5-63.9 67.2-94.5 107.6-98.3 129.5-165.5 278.2-203.3 450-10.1 45.9-20.3 110.4-24 152.5-2 21.6-3.7 43.4-4.6 58.5-.5 9.6-1.2 20.4-1.4 23.9l-.4 6.4 10.7-.6c39.7-2 84.7-21.5 125.6-54.3 23.5-18.9 57.2-54.5 79.9-84.2 21-27.7 39-54.5 58.8-87.7 45.2-75.6 83.1-154.3 150.8-313 18.1-42.3 27-58.7 51.8-95 28.1-41.2 54.1-72.6 91.1-109.6 25.1-25 40.4-38.8 64.7-58.3 119.7-95.9 268.2-158.5 422.4-178 39.4-5 64.7-6.6 106.5-6.6 54.2 0 97.2 3.8 147 13 20.3 3.7 51.7 10.9 52.9 12 .5.5-.7 6.4-3 14.2-3.5 12-3.9 14.4-3.9 24.5 0 9.7.3 11.5 2.1 14 5 6.7 11.1 9 33.9 12.9 17.9 3.1 35.7 7.5 55.5 13.9 31.5 10.1 48.3 13 70.6 12.2 20.5-.7 29.7-3.2 40.4-10.8 1.2-.9 4.4.5 15 6.6 77.4 44.4 147 106.7 207.1 185.5 20.7 27.1 43.5 61 63.6 94.5 33.5 55.8 62.3 112.3 108 211.5 37.7 81.9 44.5 96.3 60.9 129.5 43.5 88 77.4 139.8 118.2 180.2 46.2 45.8 100.7 70.7 160 73l15.2.6v-6.9c0-15.3-3.6-62.2-7.6-97.4-26-233.4-107.9-439.8-240.4-606-80.1-100.4-176.6-184.6-289-251.9-91-54.6-195.1-98.2-300-125.6-8-2.1-14.9-4.2-15.5-4.6-1.1-.8-.2-99.6 1.3-139.2l.7-20.8 7.7 9.4c11.7 14.2 29 33 63.3 68.7 34.9 36.4 41.6 43.6 52.3 56.5 4.1 4.9 8 9.3 8.6 9.7 1.6 1.1 7.8 1 13.8-.3 12.9-2.7 29.8-14 47.7-31.8 9.1-9.1 21.1-22.7 23.5-26.9.5-.8-17-25.6-49.3-70-27.6-37.8-79.1-108.5-114.5-157.1-35.4-48.6-65.7-89.2-67.2-90.2-17.3-11.4-84.5-17.7-207.6-19.5l-46.8-.7v-3.1c0-1.6-.5-7.8-1.2-13.6-1-9.8-.9-12.8 2.6-44 2-18.4 4.3-38.9 5.1-45.5 5.8-48 8-119 4.1-130.5-7.9-23.1-31.4-48.5-68-73.6-7.7-5.3-14.6-10.3-15.3-11.1-.6-.8-1.4-4.7-1.8-8.6-1-10.1-1.6-11.2-5.8-11.5-11.5-.8-27.8-7.5-39.7-16.3-13.7-10-28.9-30.6-34.2-46l-1.5-4.5 3.7-2.2c11.7-6.7 20.1-27.5 18.7-46.2l-.6-7.6 7.7-2.4c11.3-3.4 26.6-11.5 44.2-23.1 8.5-5.6 17.2-10.6 19.4-11.1 3.1-.7 5.4-.4 12 1.8 28.3 9.3 52.8 21.7 68.2 34.4 4 3.3 7.6 6 8.2 6 2.1 0 13.4-13.3 16-18.7 3.4-7.5 4.2-18.5 1.7-26.9-3.5-12.3-14.6-26.9-29.5-38.7-7.4-5.9-7.5-6.1-8.8-12.4-4.7-23.4-19.9-39.3-43.7-45.9-4-1.1-11.7-1.8-23-2.1l-17-.5-5.8-6.3c-9.6-10.6-23.3-18-39.6-21.5-10.5-2.3-27.9-3.2-38.4-2zm420.4 1157.7c.1 6 .2 12.1.3 13.8.1 3 .1 3-6.5 3.6-13 1.1-19.8 8.1-26 26.6-1.7 5.1-3.8 10.2-4.7 11.3-1.7 2-1.7 2-7-.5-7.3-3.4-18.3-10.7-23.6-15.6-9.8-9-13.6-18.9-13.6-35.8 0-5.6.3-10.1.7-10.1.3 0 3.6 1.2 7.2 2.6 8.1 3.3 23.4 4.3 36.2 2.5 9-1.3 24.9-5.1 31.4-7.5 2.2-.8 4.3-1.5 4.8-1.5.4-.1.8 4.7.8 10.6z"/><path d="M3864.8 627.7c-6.1 2-12.8 7.7-12.8 10.8 0 3.5 3.6 4.3 6.9 1.6 4.9-4 10.4-6.1 16.3-6.1 7.3 0 11.1-3.3 7.6-6.8-1.7-1.7-12.4-1.4-18 .5zm2.3 14.2c-8 7.5-.1 20.6 10.3 17.1 4.4-1.4 6.6-4.8 6.6-10 0-9.1-10.2-13.3-16.9-7.1zm69.2-1.8c-3 3-.7 6.9 3.9 6.9 4 0 10.2 3.4 12.8 7 1.7 2.4 2.9 3 4.9 2.8 6-.7 2.2-9.3-6.3-14.3-5.2-3-13.5-4.3-15.3-2.4zm-2.4 17.8c-3.8 3.9-4 9.6-.4 13.5 1.9 2.1 3.3 2.6 6.9 2.6 3.7 0 4.8-.5 7-3.1 7.8-9.2-4.9-21.5-13.5-13zm-21.9 13.8c0 1 .5 5.4 1.2 9.7l1.2 7.9-3 2.4c-1.6 1.3-5.4 3.8-8.4 5.6-6.7 3.9-4.8 4.6 5.4 2.3 7.4-1.8 13.2-4.4 15.8-7.3 1.6-1.7 1.5-2.2-2.5-9-2.3-3.9-5-8.5-5.9-10.2-1.9-3.4-3.8-4.1-3.8-1.4zm255 164c-10.2 15.1-19.2 28-20 28.8-.8.7-3.1 1.5-5 1.7l-3.4.3 2.9 1.9c3.9 2.6 9 2.6 11.4 0 1.1-1 8.6-11.8 16.7-23.9 14.7-21.8 14.8-22 15.6-28.9.4-3.9.6-7.1.5-7.2-.1-.1-8.5 12.1-18.7 27.3zM2140.5 844c-7.1.4-19.3 1.5-27 2.5-165.4 19.8-304.8 133.6-357.6 291.7-9.1 27.1-14.4 50.6-19.6 86.3-1.6 11.3-1.8 47-2.3 575.5-.3 309.9-.6 562.1-.8 560.4-.6-8.2-7.2-27.4-9.3-27.4-.6 0-.8-.4-.5-.9.7-1.1-4.9-10.1-8.2-13-1.5-1.3-2-2-1.2-1.6.8.4.2-.6-1.5-2.3-1.6-1.6-3.4-2.7-3.9-2.4-.5.3-.6 0-.2-.6 1-1.6-16.4-14.9-17.8-13.5-.3.4-.6.2-.6-.4 0-.6-2.8-2.3-6.2-3.7-14-5.9-14-5.9-60.3-6.5l-43-.6v-30c0-16.5-.1-37.1-.2-45.8l-.3-15.7h-90.3c-77.4 0-91.1.2-96.2 1.5-20.5 5.2-38.4 21.8-45.3 41.9l-2.7 8.1-.3 142.5c-.2 97.2.1 144.7.8 149.4 3.6 23.7 23.5 45 47.5 51.1 5.1 1.3 18.9 1.5 96.7 1.5h90.8l.2 372.6c.2 204.9 0 372.8-.4 373.1-1.1.6-.9 47.2.2 62.5 1.3 18.3 2 25.4 3.1 33.7.5 4.1.8 7.6.6 7.8-.2.2-14.6-11.4-32-25.7-24.6-20.2-31.7-26.6-32.1-28.7-.3-1.6-.8-7.1-1.1-12.3-2-29.1-6.8-59.6-12-75.5-5.7-17.4-16.9-34.6-29.3-45-7.1-6-21.6-13.5-29.3-15.4-13.3-3.1-29.2-2.2-43.5 2.5l-7.7 2.5-5.8-4.1c-18.9-13.2-41.9-15.9-54.6-6.4l-3.2 2.4-15.7-13-15.7-12.9-6.9 6.1c-3.7 3.3-7 6.4-7.3 6.8-.3.5 21 18.8 31.2 26.7 1.4 1.1-.7 4-15.8 22-9.6 11.5-18 21.6-18.8 22.6-1.3 1.6-1.2 2.1 1.1 4 1.5 1.2 18.9 15.9 38.8 32.7 19.9 16.8 36.5 30.6 37 30.8.5.2 9.3-9.7 19.6-22s19.1-22.3 19.5-22.3c.5 0 25.5 20.3 55.6 45.1l54.8 45.1 1.2 11.4c5.9 55.2 20.5 83.5 47.9 92.9 3 1.1 12.8 2.9 21.7 4.1 8.9 1.1 16.7 2.2 17.3 2.4.5.2 1.6 2.3 2.3 4.6 5.1 17.9 10.6 33.7 11.4 33.2.6-.3.7-.1.3.5-.4.6 1.4 6.6 3.9 13.2l4.5 12.1V3750h-28.5c-17.2 0-30.5.4-33.7 1.1-12.1 2.6-24.1 11.6-29.4 22.1-2.3 4.5-6 18.5-5.1 19.4.2.2 56.6.5 125.5.6 114.7.3 125.1.2 124.7-1.3-.9-2.7.4-4.6 5.8-8.8 12.6-9.6 32.5-17.5 52.2-20.5 6.1-.9 11.5-1.8 12.2-1.9.6-.1-5.1-5.2-12.7-11.4-10.8-8.8-14.1-10.9-15.1-10-1.1 1-1.1.9-.1-.4 1-1.4.7-2.1-2-4.2-1.8-1.4-5.7-4.8-8.7-7.6-2.9-2.8-5.8-4.8-6.4-4.4-.5.3-.7.2-.4-.4.7-1.1-3.6-5.6-4.6-4.8-.4.3-.5.2-.2-.2.5-.6-2.1-3.5-18.2-20.2-2.9-3-5.3-5.7-5.3-6 0-.3-1.5-2.2-3.3-4.1-1.8-1.9-5.7-6.4-8.7-10-2.9-3.6-5.7-6.4-6.2-6.2-.4.1-.7-.1-.7-.5.3-2.1-.3-2.4-1.8-1.2-1.6 1.3-1.7 1.2-.4-.4 1.2-1.5 1.1-2-.4-3.7-1-1.1-2.2-1.7-2.6-1.4-.5.3-.6-.2-.3-1 .4-.9-.1-1.8-1-2.2-.9-.3-1.6-1-1.6-1.5 0-1.8-4.3-6.8-5.3-6.2-.6.3-.7.1-.3-.5.4-.6-1.1-3.6-3.3-6.5-2.2-3-6.2-8.8-8.9-13-2.7-4.2-5.2-7.4-5.4-7.1-.3.2-.5-.2-.5-.8 0-1.8-10.4-18.8-11.4-18.8-.5 0-.8-.3-.7-.8.4-1.5-3.5-8.2-4.5-7.5-.5.3-.7.1-.3-.5.7-1.1-2.3-8.2-3.4-8.2-.4 0-.7-.6-.7-1.3 0-.6-1.7-4.1-3.7-7.5-2-3.5-3.6-6.9-3.6-7.6 0-.7-.3-1.5-.6-1.9-.4-.3-2.8-5.5-5.5-11.4l-4.8-10.8 6.9-6.3c3.9-3.5 7-6.8 7-7.2 0-.5-6.3-6.1-14-12.5l-14-11.6-3-9.7c-1.6-5.3-3-10.2-3-11 0-.7-.3-1.1-.7-.9-1.1.7-1.3-1.6-1.9-24.1l-.6-20.2h-3.8c-3.9 0-3.9 0-4.9-5.3-1-4.7-2.7-15.1-3.6-21.7-.2-1.4-1.1-11.1-2-21.5-.8-10.5-2-22.6-2.5-27.1-.6-5.1-1-160.2-1-428.5v-420.6l11.8-.6c8.2-.4 14.4-1.4 20.7-3.2 9.1-2.7 20.6-8.1 24.3-11.5 1.1-1 2.2-1.7 2.4-1.5.9.9 12.9-11.6 12.2-12.7-.4-.6-.3-.8.3-.5 1.4.9 4.7-2.9 3.7-4.4-.4-.7-.3-1 .3-.6 1.1.7 6.8-7.3 7.5-10.3.2-.8.8-2 1.5-2.7 1.6-1.8 6.1-15.7 7.2-22.3.6-3.7.9 10.6 1 43.2l.1 48.8h-57v737l247.3.1c272.4.2 252.7.2 253.4-.4.5-.6-10.6-23-11.9-23.8-.5-.3-.9-1-.8-1.5.3-1.8-4.3-10.3-5.3-9.7-.6.3-.7.1-.3-.5.3-.6-2.6-7.2-6.5-14.6l-7.1-13.6h-161.1c-166.4 0-161.5.1-173.2-3.4-5.4-1.6-15-8.2-20-13.8-6.9-7.6-9.5-10.8-9-10.8.3 0-.3-1.7-1.4-3.8-1-2-2.6-6.9-3.5-10.7-1.5-6.3-1.7-16-1.4-100.5l.3-93.5 2.3-6c1.3-3.3 2.4-6.8 2.5-7.7.1-.9.3-1.5.6-1.3.2.3 1.6-1.5 3.1-3.8 6.3-9.9 18.2-19 29.9-23 6.5-2.2 7.4-2.2 73.3-2.5l66.7-.3.1-45.9v-45.9l-120.2-.3-120.3-.3-6.5-2.8c-3.6-1.6-7.1-2.9-7.8-2.9-.6-.1-1-.3-.8-.5.2-.2-2.1-2.7-5.1-5.6-4.8-4.5-11.4-14-11.9-17.2-2.1-11.8-2.4-20.5-2.4-80 0-70.5.3-74.2 5.1-83.6 1.2-2.4 3.4-6 5-8s2.6-3.9 2.4-4.3c-.3-.3-.2-.4.1-.2.3.2 3.1-1.3 6.2-3.5s8.5-4.8 12-5.9c6.3-2 9.8-2 164.7-2 154.8 0 158.4 0 164.7 2 15.3 4.7 26.9 17.6 29.8 33 .7 3.5 1 30.9 1 74.6 0 57.3-.3 70-1.5 74-.8 2.6-1.2 5.1-.9 5.6.3.4.1.8-.5.8-1 0-2.7 3.8-2.3 5.2.1.5-.2.8-.7.8-.4 0-2.1 1.8-3.6 4-1.6 2.2-4.5 5.3-6.6 6.9-2.2 1.5-3.7 3-3.4 3.3.3.2-.1.5-.7.6-.7 0-4 1.2-7.3 2.5-3.3 1.4-8.8 2.8-12.2 3.2l-6.3.7-3.5 5.8c-1.9 3.2-3.5 6-3.5 6.4 0 .3-.7 1.4-1.5 2.3-.8 1-12 18.7-24.8 39.3l-23.4 37.5 134.1.5c127.3.5 134.4.6 139.6 2.4 18 6.1 30.8 18.3 37.1 35.6l2.4 6.5v194l-2.9 7c-1.6 3.8-4.9 9.6-7.3 12.8-2.4 3.2-4.1 6.2-3.8 6.7.3.6 0 .8-.7.5-.7-.3-2.9 1-4.8 2.8-9.2 8.5-22.9 13-39.8 12.8l-11.2-.2.2 32.1.3 32.1h36.6l36.5-.1-.4 17.3c-.2 9.4-.5 17.3-.7 17.5-.1.1-136.6.2-303.3.2h-303.1l-.7 4.7c-1.6 10.7 1.6 78.1 4.1 86.3.3.8.7 3.8 1 6.5 1.1 9.5 6.8 37.4 7.6 36.9.5-.3.6.2.3 1-1.1 2.8 10.6 43.2 12.1 41.9.4-.5.5-.3.1.4-1.2 2.1 9.6 30.5 19 50 3 6.2 5.4 11.8 5.4 12.4 0 .5.5.7 1.2.3.6-.4.8-.3.5.3-.9 1.5 16.8 34.1 21.6 39.8.4.5 1.6 2.6 2.7 4.5 1 1.9 2.3 3.4 3 3.2.6-.1.9.2.5.8-.9 1.4 5.4 10.3 7 10 .4-.1 1 .2 1.3.6.4.4.1.4-.5 0-1.8-1-1.6.5.3 3.2.8 1.2 2 1.9 2.6 1.6.7-.4.8-.2.4.5-1 1.5 9.4 15.5 26.9 36 11.8 14 41.2 43.4 42.5 42.6.6-.4.9-.2.8.3-.3.9 4.2 5.2 15.5 14.6 5 4.3 5.9 4.7 7.5 3.5 1.5-1.3 1.6-1.2.4.3-1.2 1.5-.1 2.6 10.1 10.2 14 10.4 26.6 18.9 41.5 27.7l11.3 6.7 8.7-2.4c65.8-18.1 138.7-32.5 198-39l16.3-1.8 3.3-4.6c3.8-5.1 23.1-30.7 24.9-33 .7-.8 2.6-3.3 4.2-5.5 1.7-2.2 6.1-8 9.8-12.8 3.7-4.8 6.5-9.2 6.2-9.8-.4-.5-.1-.8.6-.7.6.2 2.4-1.3 3.8-3.3 4.5-6.3 21.3-28.2 24.8-32.4 1.8-2.1 3.1-4.5 2.8-5.3-.2-.7-.1-1.1.3-.8.5.3 2.5-1.6 4.5-4.2s12.8-16.4 23.9-30.8c45.5-58.5 46.5-59.7 58.8-66.2 8.9-4.7 16-7.1 46.2-15.6 5.3-1.5 5.9-2 7.7-5.9 1-2.3 3-8 4.4-12.7 1.5-4.7 3.8-12.1 5.2-16.5 1.4-4.4 2.5-8.5 2.5-9.1 0-.6-2.7-1.9-6.1-2.9-17.9-5.5-36.3-22.4-46.6-43-3.5-6.9-7.5-18.9-9.8-28.9-.8-3.7-1.8-7.3-2.2-8-.4-.6-.6-2.3-.4-3.8.1-1.4-.3-2.9-1-3.4-.8-.4-1-.3-.5.4.4.7.2 1.2-.3 1.2-1.5 0-1.4-1.8.3-2.7.9-.6 1.5-4.5 1.9-14 1.4-29.6 11-58 26.8-79.4 7.3-9.9 7.3-9.9 10.3-3.6 10.9 22.3 51.1 54.6 92 74.1 6.1 2.9 13.5 6.1 16.4 7.2 3.8 1.3 5.1 2.2 4.8 3.3-5.3 18.2-2 40.2 7.8 51.9 1.5 1.6 2.6 3.4 2.6 3.9 0 3.5-19.1 24.2-29 31.4-3.3 2.4-6 4.8-6 5.4-.1.5-.9 9.8-1.8 20.6l-1.8 19.7 8.9 1.1 8.8 1.2 6.7-3.6c3.7-1.9 9.6-6 13.2-9 10.4-8.9 16.8-9.9 42-6.8 7.4.9 20.7 1.7 29.5 1.7 14.2.1 16.8-.2 23-2.2 8.5-2.8 14.4-6.1 21-11.7 9.4-7.9 13.5-19.4 13.5-38 0-23.1-8.3-37-32.2-53.8-12.8-9-17.2-13.6-19.8-20.4-3.5-9.4-4.3-19.1-3.1-38.9 1.5-25.7-.2-39.3-6.8-53.8-5.5-12.3-17.2-26.8-28.5-35.6l-5.7-4.3.4-306.1c.3-226 .7-310.3 1.5-322.1 3.7-48.4 8.6-96.9 13.8-135.5 13.1-97.6 37.6-202.6 67.5-289.6l5.9-17.2-.3-444.3c-.2-416.4-.4-445.3-2-458.8-9.1-74.5-31.1-135.4-70.1-194.1-67.7-101.8-175.6-170.4-296-188-27.1-4-63-5.6-88.1-4zm-695 2405.5c23.2 5.9 43.3 26.9 51.8 54 3.5 11.1 6.3 24.8 8.1 39.5 1.9 15 3.9 36.1 3.4 36.5-.8.6-94.3-77.6-94.1-78.7.1-.7.9-3.3 1.8-5.8 3.6-9.6.3-26.1-7.4-37.4-1.7-2.4-3.1-4.7-3.1-4.9 0-.4 9.1-3 14.5-4.1 5-1 19.6-.5 25 .9zm854.8 138.2c.4.3 2.1.8 3.9 1 11.4 1.2 17.8 14.9 11.4 24.4-4.7 6.9-15.1 9.1-21.7 4.6-7.6-5.1-9.8-12.9-6-21.4 1.1-2.3 1.6-4.5 1.3-4.9-.4-.4-.2-.4.4-.1.7.4 2.3-.3 3.8-1.4 1.4-1.1 2.6-1.7 2.6-1.3 0 .5.5.3 1.2-.4 1.4-1.4 2.2-1.5 3.1-.5zm-743.2 57.5l32.5 26.8 3.8 17.1c2 9.4 3.5 17.3 3.2 17.6-.3.3-7-.4-15-1.6-10.8-1.5-16.2-2.8-21.1-5-15.8-7.2-27.1-26-32.9-54.6-2.3-11.2-4.4-27.6-3.6-27.3.4.2 15.3 12.3 33.1 27zm105.9 218.3c1.8 3.2 3.6 5.2 4.2 4.9.7-.4.8-.2.4.5-.4.6 2.2 5.6 6.1 11.7 8.9 13.7 29.2 41.4 30.4 41.4.5 0 .9.5.9 1.1 0 1.4 11.6 15.6 13.8 16.8.9.6 1.3 1.1.8 1.1-.6 0 .3 1.3 1.9 3 1.5 1.6 3.1 2.8 3.4 2.5.4-.2.7.5.7 1.6 0 1.8-1.1 1.9-33.3 1.9H1659v-46c0-25.3.2-46 .4-46 .3 0 1.9 2.5 3.6 5.5zM4534 1458c-7.7 1.3-15.2 3.4-32.5 9-17.1 5.5-30.9 8.5-45.7 10.1-5.7.6-12.2 1.3-14.5 1.5-2.4.3-5.8 1.7-8.2 3.4-10.5 7.6-12.5 18.1-7.2 36.7 1.7 6.1 3.1 12 3.1 13.2 0 3.7-4 4.5-23 4.5-16.8.1-17.7 0-23-2.5-3.1-1.4-7.3-4.1-9.3-5.8l-3.7-3.3 5.1 14.9c7.8 23.1 14.2 32.5 24 35.4 6.1 1.9 13.8-.5 34.9-10.5 19.6-9.4 28.8-13 56.8-22.2 33.2-10.9 54.1-22.4 70.3-38.5 12.9-12.9 16.3-19.9 13.8-28.8-1.6-5.8-9.6-14.1-15.4-15.9-5.3-1.7-18.6-2.3-25.5-1.2zm804.3 1425.5c-15.2 4.2-28.4 13.8-39.4 28.6l-5 6.6-10.7.6c-13.3.8-21.2 2.7-30.7 7.3-14.5 7.1-25.4 18.2-33 33.9-6.3 12.7-7.8 20.3-7.2 34.5 1.5 32.9 20.1 70.3 59.5 119.5 1.2 1.5 2.4 2.6 2.6 2.4.2-.2 1.1-10 2.1-21.8 1.6-21.5 1.5-23-1.7-23.1-1.4 0-10-9.5-11.9-13.2-8.7-17.1.1-34.7 17.6-34.8 6.8 0 11.5 1.5 17.4 5.4l5 3.4.8-3.6c.4-2.1.8-9.7.8-17v-13.3l3.5.6c6.3 1.1 12.7 3.5 14.5 5.5 2.5 2.7 3.7 2.5 6.2-1.3 4.2-6.2 7.4-14.5 8-21.1l.6-6.6h5.2c13.9 0 26 4.8 39.4 15.7 16.9 13.7 24.8 19.4 32.4 23.4 16.5 8.6 32.1 12.2 49.2 11.5 13.2-.6 20.2-2.3 31.4-7.6 11.5-5.5 22-16 27.9-27.9 5-9.9 5.3-14 1.6-17.7-2.2-2.3-3.1-2.5-7.2-2-11.7 1.4-19.3 1.8-22.5 1.2l-3.5-.7 4.8-4.8c10.7-10.7 13.4-22.8 5.9-26.6-3.8-2-5.4-1.9-11.9.7-13.8 5.5-41.9.6-57.5-10.2-2.4-1.7-11.5-8.9-20.2-16.1-20.6-17-27.8-22.1-39.2-27.8-9.2-4.4-9.9-4.6-19.5-4.8-6.5-.2-11.9.2-15.3 1.2z"/><path d="M5354.2 3025.6c-8.7 4.3-11.8 11.5-5.6 13 1.8.5 3.3-.2 5.9-2.5 5.1-4.5 7.6-4.8 13-1.6 4.9 2.8 8 2.7 9-.5 1-3.1-1.1-5.6-6.7-8.4-6.5-3.3-9.1-3.3-15.6 0zm72.2 13.8c-3.9 1.7-4.8 3-4 6.2.7 2.5.8 2.5 7.2 1.9 6.2-.7 6.7-.6 9.4 2 1.6 1.5 3.1 3.8 3.4 5.1 1.2 4.6 8.6 4 8.6-.8 0-2.5-3.3-8.9-5.6-10.9-5.5-4.8-12.9-6.1-19-3.5zm-67.6 3.2c-7.6 4.1-7.4 15.9.2 19.9 8.6 4.5 18-2.2 16.7-11.9-1.1-7.8-9.7-11.9-16.9-8zm66.6 15.5c-2.9 1.4-5.4 6.1-5.4 9.9 0 2.3 1 4.2 3.5 6.7 3.3 3.3 3.9 3.5 8.1 3 5.2-.5 8.1-2.8 9.3-7.1 2.4-9.2-6.8-16.7-15.5-12.5zm-4544.6 3.4c-13.2 3.3-24.7 10.4-30.3 18.9-4.5 6.7-6.6 13.2-7 21.9l-.3 6.9-7.7 3.3c-13.7 6-19.7 11.7-23.1 21.8-2.1 6.4-1.4 20 1.5 30.7 2.4 8.9 2.7 18.7.6 23.6-.8 2-3.1 5.8-5 8.4-9.3 12.6-10 24.1-2.3 36.3 2.3 3.7 2.8 5 1.9 6.1-1.5 1.8-2.1 16.8-.9 24.2.5 3.2 1.7 6.7 2.6 7.8.9 1.1 1.2 1.6.5 1.2-.8-.4-.7.8.4 3.9 1.3 3.9 1.8 4.5 3.7 4 1.1-.4 1.7-.3 1.1.2-1.8 1.4-1.5 3.1.6 3.6 1.5.4 1.9.2 1.5-.8-.2-.7.3-1.9 1.2-2.7 1.5-1.2 1.6-1.1.4.4-.9 1.1-.9 1.8-.3 2.3.7.4.7 1-.2 1.9-.9 1-1.4 1.1-1.9.2-.6-.8-.8-.8-.8.1 0 1.7 9 10.4 10.1 9.7.5-.3.9-.1.9.4 0 1.7 6.1 3.4 7.6 2.2.8-.7 1.4-.7 1.8-.1.3.5 0 1.1-.6 1.4-.7.2.2.4 2 .5 1.7 0 3.2-.3 3.2-.8 0-.4 1.7-.4 3.8.1 17.5 4.1 32.2-7.9 37.7-30.8 2.3-9.7 1.7-27.2-1.3-35.8-1.9-5.6-1.9-6.1-.4-6.9 3.4-1.8 7.8-7.5 12.4-15.7 4.9-8.8 9.1-13.6 14.5-16.3 3.8-1.9 15.2-2.2 21.8-.5 4.2 1.1 4.6 1 7.7-1.6 8-6.8 18.7-9.2 26.4-6 1.9.8 6.5 4.4 10.1 7.9 10.7 10.6 16.2 12.1 33.1 9.1 13.6-2.4 18.1-1.3 22.4 5.5 2.5 3.9 4.2 19 4.2 36.7 0 9 .2 16.3.4 16.3 1.8 0 15.3-11.6 16.9-14.6.7-1.2 1.9-6.9 2.7-12.6 2-14.3 2.5-15.1 9-18.1 6.1-2.8 13.5-9.2 16.7-14.3 4.6-7.6 6.2-20.8 3.5-29.8-3.4-11.3-13.1-20.5-25.4-24.3-3.1-.9-6-1.9-6.4-2.3-.4-.3 0-2.8.8-5.5 1.1-3.6 1.4-7.7 1.1-14.6-.3-8.1-.9-10.6-3.5-16.2-4-8.7-10-15-17.7-18.7-7.2-3.4-18.8-5.5-26.2-4.6l-5.2.6-2.7-5.7C993 3068.9 984 3063 972 3063c-3.1 0-12.1 1.6-20.1 3.6-17.5 4.3-23.5 4.3-34.9-.6-14.2-5.9-24.7-7.2-36.2-4.5zm2131.7 9.5c-7.6.8-72.6 13.8-174 35-13.2 2.8-44.2 9.1-69 14.1-49.2 9.9-59.9 12.9-76.4 21.5-43.4 22.5-73.5 64.9-80.7 113.7-2.8 18.7-1.6 38.2 3.9 64.2 2.5 11.5 16.5 79.7 31.2 151.5 14.6 71.8 27.2 132.2 27.8 134.2.9 2.7 5.1 7.4 15.9 17.8l14.8 14.2 4.7-9.9c10.9-22.8 29.4-56.1 46.1-82.8 18.4-29.6 45.1-66.6 54.5-75.8 12.3-11.9 31.8-22.8 54-30.2 14.9-5 25.3-7 40.8-8.1l10.7-.7.7 3.2c1.7 7.7-4.1 14.1-14.4 16.1-14.4 2.8-19.1 5.3-17.5 9.4 1.1 2.8 7.6 5 16.4 5.4 10.8.5 22.7-1.5 39.5-6.9 12-3.8 13.7-4 21.5-3.6 12.5.6 20 4.4 20 10.1 0 2.4-10.7 12.2-20.2 18.6-17 11.4-38.5 19.8-63.6 24.7-12.2 2.4-16.2 2.7-36.2 2.8-28.8.2-26.6-.1-30.9 4.2-6 5.9-8 10.8-27.1 63.8-19.6 54.5-28.8 77.2-40.3 99.5-10.9 21.2-21.2 34.9-30.7 41-4.8 3.1-5.5 3.2-11.8 2.8-4.3-.4-9.9-1.8-15.7-4-4.9-2-9.1-3.5-9.1-3.4-.1 0 7.6 38.1 17.2 84.6 9.5 46.5 35.1 171.3 56.8 277.5 54.8 267.8 54.1 264.1 57 273 10.8 32.8 35.9 63.5 66.9 81.9 25 14.9 57.5 23 85.4 21.2 12.5-.8 10.9-.5 68.3-12.2 25.6-5.3 65.2-13.3 88-17.9 22.8-4.6 57.9-11.8 78-15.9s40.1-8.2 44.5-9.1c20-4 31.8-8 46.8-15.7 41.9-21.5 72-62.9 80.3-110.3 2.1-11.8 2.3-37.6.5-47.5-.7-3.6-48.7-238.5-106.7-522-74.2-362.5-106.6-518.5-108.9-525.8-13.8-41.3-44.4-74.9-84.3-92.2-22.8-9.9-50.6-14.3-74.7-12zm1750.3 1.1c-23.7 2.8-49.7 13-70.8 27.8-13.3 9.4-31.5 28.9-40.7 43.6-5.4 8.5-12.2 23.6-15.4 33.5-1.6 5.2-29.9 141-62.8 301.8-32.9 160.7-60.1 292.5-60.4 292.9-.3.3-2.8 0-5.4-.6-2.6-.6-6.4-1.3-8.3-1.5-1.9-.2-4.3-.7-5.2-1.1-1-.4-2.4-.5-3.2-.2-.8.3-1.7.1-2-.6-.2-.7-.5 0-.5 1.5-.1 1.6.4 2.8 1 2.8.5 0 .7.4.4 1-.3.5 0 1 .7 1 .9 0 1 .3.2.8-1.2.8-1.4 14.3-.2 13.6.5-.3.8 0 .8.6 0 .7-.6 1-1.4.7-1.7-.7-3.9 1.6-2.8 2.8.4.5.2.5-.5.1-.6-.3-1.4-.2-1.7.3-2.3 3.7-25 16.3-29.9 16.5-1.6.1-4.7 3.6-3.2 3.6.4 0-.1.7-.9 1.6-.9.8-1.6 2-1.6 2.7 0 .6.7.2 1.5-.9 1.4-1.8 1.4-1.7.4.9-.7 1.5-1.4 2.5-1.7 2.2-1-.9-2.9 4-2 5.1.5.7.1 1.7-.9 2.5-1.6 1.3-1.7 1.2-.4-.4.7-.9 1-1.7.5-1.7-1.2 0-7.4 10.7-6.6 11.5 1 1 1.1 3.6.1 2.9-.5-.3-.7-1-.4-1.5 1.2-1.8-.7-.8-2.6 1.3-2 2.5-2.5 4.3-.9 3.3s1.1.1-.7 1.6c-1.4 1.2-1.6 1.2-.8 0 .5-1 .4-1.2-.4-.7-1.8 1.2-4.3 6.6-3 6.6.8 0 .8.4-.1 1.5-.7.8-1.8 1.5-2.4 1.5-.6 0-.4-.4.4-1 .8-.5 1.1-1.2.7-1.6-1.1-1.2-3.6 1.6-3.2 3.7.2 1.1 0 1.7-.5 1.4-.5-.3-1.8.2-2.9 1.2-1.7 1.4-1.8 2-.8 3.2 1.1 1.4 1 1.4-.7.1-1.7-1.3-2.1-1.2-4.2 1.3-1.3 1.6-2.4 2.4-2.4 2 0-.4-.4-.3-.8.3-.4.5-2.4 2-4.4 3.3-2.1 1.2-3.8 2.5-3.8 2.7 0 .3.5.2 1-.1.6-.3 1-.4 1-.2s-1.7 1.6-3.8 3c-4.7 3.1-9.7 12.1-7.6 13.8.7.6 1.9.7 2.5.3.8-.4.9-.3.5.4s-1.8.9-3.2.6c-2-.5-2.4-.2-2.4 1.5 0 1.2.1 2.2.2 2.3.1.2-.4 1.4-1.2 2.7-.7 1.4-1.4 5.6-1.6 9.4-.1 3.8-.5 7.1-.8 7.4-.2.3-.2 1.1 0 1.8.3.7.7 2.8.9 4.7.2 1.8.4 3.3.5 3.3.1 0 .3 1.3.5 2.9.6 4.4 2.6 8.7 3.9 8.3.6-.2 1-1.5.9-2.8-.1-1.3.1-1.8.3-1.1.3.6.9 1 1.4.7.4-.3.6.4.3 1.4-.3 1.1-1.1 2.2-1.8 2.5-1.2.4-1.1 1 .1 3.5.9 1.7 1.9 3.1 2.4 3.1s1.7.3 2.7.7c1.5.6 1.6.5.5-.9-1-1.3-1-1.8-.1-2.4.7-.4.9-.3.5.4-.3.5 0 1.2.6 1.5 1 .3 1 .8-.1 2.1s-1.6 1.4-2.2.4c-.4-.7-1.1-.9-1.4-.6-.4.4.2 1.4 1.4 2.4 1.1 1 1.8 2.1 1.5 2.6-.3.4 0 .8.5.8.6 0 1 .6.9 1.2-.2.7.2 1.2.9 1.1.7-.2 1 .3.7 1.1-.3.8.5 3.4 1.7 5.8 1.3 2.3 2.2 4.6 2.1 5-.1.5.2.8.8.8.5 0 1-.5 1-1.2 0-.6.3-.8.6-.5.4.4.1 1.3-.6 2.2-1 1.2-1 1.5.3 1.5.9 0 1.9.4 2.2 1 .3.6-.1.7-.9.4-.9-.3-1.6-.1-1.6.5s.5 1.1 1.1 1.1c.5 0 .7.4.4 1-.3.5-.1 1 .5 1 .7 0 1 .7.6 1.5-.3.8-.2 1.5.2 1.5s.9 1.1 1 2.5c.1 1.4.9 4.2 1.9 6.3.9 2 1.7 4.1 1.7 4.7.1.5.8 1.6 1.6 2.3.8.8 1 1.1.3.8-.6-.4-1.3-.1-1.5.6-.5 1.4-4.6.5-7.3-1.7-1.1-.9-1.4-1.3-.6-.9 1.1.5 1.3.3.8-1-.4-1-.7-2-.7-2.2 0-.3-.4-.3-.8 0-.4.2-.8-.8-.7-2.2 0-1.5-.5-2.6-1.1-2.5-.7.1-.9-.8-.6-2.3.3-1.7-.2-3-1.4-4-1.1-.9-1.4-1.3-.7-1 .7.4.9-.1.6-1.4-.3-1.1-1-2-1.5-2s-.7-.4-.3-.9c.3-.5 0-1.3-.6-1.7-.8-.5-.9-.3-.4.6.6.9.4 1.1-.4.5-.9-.5-1-1-.2-1.8.7-.7 0-2.9-2.2-7-5.3-9.9-5.5-10.1-5.9-8.4-.2 1.2-.7 1-2-.7-1.3-1.8-1.3-2.3-.3-2.3.8 0 1.1.5.8 1-.4.6-.1.7.6.3.9-.6.8-1.3-.6-2.9-1-1.2-2.2-2.5-2.6-2.8-.5-.3-.9-1-.9-1.5s-.4-1.9-.9-3.2c-.5-1.3-.9-2.6-.9-2.9 0-.4-.8-1.5-1.7-2.6-1-1.1-1.3-1.7-.6-1.3.9.5.8-.6-.3-3.6-1.8-4.9-2.6-26.6-1.1-28.6.5-.6.7-1.2.3-1.2-.3 0-.1-1.2.4-2.6.9-2.3.8-2.5-.7-2s-1.4.3.2-.9c1.1-.9 2-2.1 2.1-2.8 0-.7.8-2.9 1.7-5 .9-2.1 1.8-4.5 1.9-5.5.2-.9.9-2.3 1.6-3 .7-.8 1-1.8.7-2.3-.4-.5-.1-.9.6-.9.8 0 .8-.4-.1-1.5-1.2-1.5-3.5-1.1-2.5.5.3.4-.3.7-1.2.6-1-.2-1.6-.7-1.3-1.2.3-.5.8-.8 1.3-.6 1.7.5.5-1.6-2.3-3.8-1.6-1.4-2.9-3-3-3.6 0-1.8-7-7.5-8.2-6.8-.7.4-.8.2-.4-.5.4-.6 1.2-.8 1.8-.5.6.4.8.1.6-.7-.3-.8-1.1-1.3-1.7-1.1-.7.1-1-.2-.6-.8.7-1.2-2.5-7-3.9-7-.5 0-.6-.3-.3-.6.4-.4-.5-2.8-1.8-5.3-2.6-4.7-6.5-13.7-6.4-14.7 0-.3-.8-1.2-1.8-2.1-1-.8-1.1-1.1-.3-.7 1.3.7 1.3.5.1-.9-.7-.9-1-1.7-.6-1.7s.2-.7-.5-1.5-.9-1.5-.5-1.5.2-.6-.4-1.3c-.6-.8-.7-1.8-.3-2.2.4-.5.2-.5-.5-.1-.6.3-1.6-.2-2.2-1.1-.6-1-1.1-1.2-1.1-.6 0 .7-.5 1.3-1.1 1.3-.8 0-.8-.5.1-1.5 1-1.2 1.6-1.3 2.6-.4 1.1.9 1.4.8 1.4-.4 0-.8-.7-1.7-1.5-2.1-.8-.3-1.5-1.1-1.5-1.8 0-.9.3-.9 1.1.2.9 1.2 1 1.1.4-.5-.4-1.1-.8-2.8-1-3.7-.2-.9-.8-2.6-1.4-3.7-.6-1.1-.8-2.7-.5-3.6.5-1.1-.2-2.4-2.1-3.9-2-1.6-2.3-2.3-1.2-2.3.9 0 1.4.4 1.1.9-.3.4-.1.8.5.8.5 0 .9-1.4.9-3-.1-1.9-.6-3-1.5-3-2.1 0-7.3 2.9-7.3 4 0 .6-.9 1-2.1 1-1.1 0-1.7.4-1.4 1 .3.6-.1.7-.9.4-.9-.4-1.8.1-2.2 1-.3.9-1 1.4-1.4 1.1-.5-.3-1.3.3-1.9 1.2-.5 1-1.3 1.8-1.8 1.7-2.6-.3-4.3 1-3.9 3.1.4 1.9.1 2.2-1.7 1.7-2-.5-2-.6-.1-1.3 1.5-.6 1.6-.8.2-.8-.9-.1-3 2-4.9 4.9-1.7 2.7-3.6 4.7-4 4.4-.5-.3-.9-.7-.9-1 0-.3.5-.2 1 .1.9.5 1.4-.8.8-1.9-.2-.2.6-1.2 1.7-2.2 2.8-2.6 1-1.4-5 3.1-2.7 2.1-5 4.5-4.9 5.4.1 1.1-.8 1.7-2.8 1.8-3.3.1-6.1 2.1-5.4 3.9.3.7-.3 1.8-1.2 2.6-1.5 1.1-1.5 1.1-.5-.3 1.6-2 .5-3.2-1.3-1.6-3.1 2.8-4.4 3.7-5.1 3.7-.4 0-8 7.4-16.8 16.5l-16 16.6-72.7-.1h-72.7l-2.1 2.2c-1.1 1.2-2 3.1-2 4.2 0 1 6.6 23.2 14.7 49.3 12.3 39.6 14.9 47.3 16.5 47.3 1 0 3.2 1.3 4.9 2.8 2.7 2.4 3.2 3.6 3.3 7.5.1 2.9.6 4.7 1.3 4.7.7 0 2.4 1 3.8 2.3 2 1.7 2.8 3.5 3.2 7.1.4 2.7 1.2 5 2 5.3 2 .8 4.3 5.7 4.3 9.3 0 1.7-.7 4.7-1.5 6.7-1.4 3.4-1.4 3.7.4 5 4.7 3.2 4.6 10.9-.1 16l-2 2.2 8.7 28.3c4.9 15.6 10.5 33.9 12.6 40.7 2.1 6.9 4.5 13.2 5.4 14 1.4 1.4 8.5 1.6 59.5 1.9 47.4.2 58 .5 58 1.6 0 .7-.4 2.6-1 4.2-.5 1.6-1.1 4.3-1.3 5.9-.2 1.7-.7 3.6-1.1 4.3-.4.7-.4 1.2 0 1.2.3 0 .1.7-.6 1.5-.6.8-.9 1.9-.6 2.4.4.5.2 1.2-.3 1.5-1 .7-.9 2.5.3 4.4.4.7.4 1.1-.1 1-.4-.2-1 .1-1.1.7-.2.5-.8 1.6-1.4 2.2-.6.7-.7 1.3-.3 1.3.4 0 .2.7-.5 1.5-1.1 1.3-1.1 1.8 0 2.8.7.7 1 .7.7.2-.3-.6.4-1.7 1.6-2.4 1.8-1.1 2-1.1 1 0-1.4 1.4-1.8 3.3-.5 2.5.4-.2.9.5.9 1.7.2 1.7 0 1.9-.7.7-.5-.8-1-1.1-1-.7 0 .4-.9.3-2-.3s-2-.7-2-.2c0 .5 1 1.4 2.3 2 2 1 2 1.1.2.9-1.1-.1-2 .1-2 .4 0 .3-.6 1.3-1.4 2.2-.7 1-1 1.7-.5 1.7s.3.4-.5.9-1.4 2.3-1.5 4c0 1.7-.5 3.1-1 3.1-.4 0-.6.9-.3 2s0 2.3-.5 2.7c-.7.4-.8.1-.3-.7.5-.8.4-1.1-.2-.7-1.7 1.1-2.2 4.5-.7 5.1.8.3 1.4 1.1 1.4 1.8 0 .8-.3.9-.8.3-1.2-1.7-3.5-1.7-2.9-.1.3.8-.1 2-.8 2.6-.8.7-1.2 1.6-.9 2.1.3.5 0 .9-.6.9-.8 0-.7.6.1 2.1.6 1.2.7 1.9.1 1.5-1.4-.8-3.5 2-2.6 3.5.4.7.3.9-.3.6-.9-.6-4.6 6.3-4.3 7.9.1.4-.4 1.1-1.2 1.5-1 .7-1 .9.2.9.9.1.5.6-1 1.5s-1.9 1.4-1 1.5c1.3 0 1.3.2.1.9-1.2.8-1.2 1.2-.2 2.5.8.9.9 1.6.3 1.6-.6 0-1.2-.6-1.5-1.3-.5-1.4-2.4 0-2.9 2.3-.2.8-1 2.1-1.8 2.8-1.3 1.2-1.3 1.3 0 .7.8-.3.5.2-.7 1.1-1.3.9-2.3 2.3-2.3 3 0 .8-.5 1.4-1.1 1.4-.5 0-.8.4-.4.9.3.6-.3 1.5-1.2 2.1-1.5.9-1.1 1 1.7.5s2.4-.1-2.1 1.8c-6 2.5-76.5 39.3-78.7 41-.9.7-2.6.1-6-2.3-2.6-1.8-14.6-10-26.7-18.1-49.9-33.3-86.7-52.5-107-55.8-5.2-.8-6.9-.6-12.8 1.4-18.6 6.4-36.4 22.7-43.4 39.7-3.1 7.7-4.2 20-2.3 27.9 2.9 12.3 10.8 25.6 20.6 34.9 22.6 21.3 71.7 51.7 145.8 90.3l28 14.6-10 4.6c-5.4 2.6-11.6 5.4-13.6 6.2-2.1.8-3.8 1.9-3.8 2.3 0 .4 3.4 8.1 7.6 17.1 4.2 8.9 12.2 27.3 17.9 40.8 16 37.9 15.1 36.2 17.7 35.6 48.8-11.1 85.7-21.2 117.7-32 13-4.3 13.6-4.4 16-2.8 7.3 4.7 20.2 15.2 33.5 27.3 19.4 17.6 18.9 17.2 21.9 16.1 4.4-1.7 6.1-5.6 15.7-35.6 5.6-17.5 10.2-25.9 22.6-41.3 8.5-10.7 11.4-13.6 16.1-16.1 3.1-1.7 6.5-3.1 7.5-3.1 3.5 0 26.8 13 26.8 15 0 1.2-9 27-10.1 29.2-.6 1.1-.8 2.2-.6 2.5.8.8 17.6-3.7 25.7-6.9 22.7-8.9 37.7-23.7 47.7-47 1.9-4.6 3.8-8.6 4.2-9 .3-.4 5.6.4 11.6 1.6 6.1 1.3 35.5 7.4 65.5 13.5s85.5 17.4 123.4 25.1c74.9 15.3 83.6 16.5 103.1 15 62.4-5.1 114.5-46.2 133.3-105.1 1.7-5.3 5.3-20.6 8.1-34 24.3-118.6 90.5-441.7 138.5-675.9 32.1-157 58.6-286.4 59-287.5.3-1.1.3.9 0 4.5-1.2 17.7-1.6 100.1-.5 128 4.4 114.7 14.4 196.7 27.4 224.9 2.4 5.2 6.2 7.1 21.2 10.6 16.9 4 29 5 58 4.9 34.6-.1 64.9-3 109.9-10.5 9.8-1.6 18-2.8 18.1-2.7 1.2 1.2 16.9 152.3 21 201.3 1.4 17 2.8 32.9 3.1 35.2.4 3.3 3.8 8.8 17.6 28.5 9.4 13.3 22.4 32.2 28.8 41.8l11.7 17.5-3.9 8.2c-20.9 44.6-23.2 167.9-6.3 337.8 3.5 34.7 3.3 33.5 5.5 33.5 1.8 0 1.9.7 1.2 16.7-.4 9.3-.7 22.2-.7 28.8v12l7.5.7c20.1 2 39.9 8 54.7 16.6 4 2.3 11.8 7.7 17.4 12 5.6 4.2 14.2 10.7 19.1 14.4 5 3.8 10.8 7.3 13.1 7.9 6.2 1.7 60.9-.6 65-2.7 6.5-3.4 10.1-22.2 5.9-31.6-3.3-7.6-8.9-10.8-29.8-16.8-31.1-9-48.5-24.2-59.2-51.6l-2-5.1 7.6-1.6 7.7-1.7-.4-44.7c-.6-75.9 2.4-133.7 11.5-223.3 1.9-19 4.6-45.5 6-59 1.6-15.5 2.7-34.2 3.1-51 1-47.4-1.8-59.5-24.8-106.1-24.1-48.8-65.1-119-119.1-204.2l-14.1-22.2-5.9-24.5c-9.4-38.8-11.2-48.4-15.3-78.8-.2-2 .1-3.4.8-3.6.7-.2 8.2-1.1 16.7-2 39.3-4 78.7-13.1 128.6-29.8l27.2-9-3.8-7.2c-6.3-11.6-13.2-35.2-17.2-58.6-.5-3-1-5.5-1.1-5.6-.1 0-32.6 2.5-72.2 5.7-39.6 3.1-74.3 5.9-77.1 6.1l-5.1.4-.7-19c-2.1-59.1-6.3-108.5-11.6-135-6.5-32.4-26.1-73.6-58.6-123.4-7.4-11.3-9.8-14.2-11.6-14.2-9.2-.2-37.4-3.6-53.8-6.6-14.7-2.7-37-8.3-44.8-11.2l-4.9-1.9-11.7 14.7c-23.1 29.4-36.3 51.8-43.9 74.5l-3.4 10-.6-11.6c-2-38.3-17.5-72.8-44.7-99.9-17.3-17.3-36.9-29.6-58.6-36.8-8.9-3-15.7-4.5-61.9-13.8-12.6-2.5-36.9-7.5-54-11-107.4-22.3-172.7-35.5-180.3-36.4-10.2-1.2-23.5-1.1-34.4.1zM4158 3869.8c4 3 6.2 7.7 6.2 13.2-.1 8.4-3.9 12.9-10.7 13-8.2 0-13.8-6.3-13.9-15.7-.2-11 10-16.7 18.4-10.5zm25.1 3.2c5.1 2.8 6.5 12.5 2.4 16.5-3.2 3.3-6.7 3.1-10.7-.4-2.9-2.6-3.3-3.5-3.3-8.1 0-4.2.4-5.5 2.4-7.1 2.6-2.1 6.2-2.4 9.2-.9zm174.2 81.7c-1.8.7-1.6 2.3.3 2.3 1.9 0 11.8 4.1 12.2 5.1.2.4 1.3.4 2.5.1 1.9-.5 2-.3.9 1-1 1.2-1 1.7.1 2.7.8.6 1.8.7 2.2.3.5-.4.5-.1.1.5-.4.7-.2 1.3.4 1.3.6 0 .8.4.5 1-.3.5-.2 1 .3 1 .6 0 1.3 1.1 1.6 2.5.4 1.5 1.1 2.3 1.8 1.9.6-.4.9-.1.6.7-1.3 3.6 6.5 11.1 9.6 9.2.5-.4.6-.1.2.5-.6 1 3 2.8 4.7 2.4.5-.1.6.2.3.7-.4.5 0 1.4.9 1.8 1.3.8 1.2 1.6-.9 6.9-3.1 7.6-5.6 20.7-5.6 29.3 0 3.7-.3 7-.6 7.3-.3.3-3.2-.5-6.5-1.8-3.3-1.4-6.4-2.2-6.9-1.9-.6.4-1 .2-1-.3 0-1.7-5.3-2-9.4-.5-10 3.6-38.7 1.7-53.3-3.5-14.6-5.1-29-15.8-33.3-24.7-2.5-5.2-1.9-7 3-9.4 2.8-1.3 3.6-2.7 5.5-8.4 2.4-7.4 4.1-9.2 9.8-10.1 5.7-.9 10.2.1 19.7 4.4 10.6 4.9 18.6 7 26.6 7 6.6 0 12.4-1.5 12.4-3.3 0-.6-1.6-6.2-3.6-12.5-1.9-6.3-3.4-11.5-3.2-11.6.2-.2 1.9-.7 3.8-1.3 3.6-1.1 6.5-1.5 4.3-.6zm76.5 118.1c1.2.8 2.2 2.4 2.2 3.6 0 1.5.3 1.7.9.8.7-1.1.9-1 1.5.3.3.9 1.1 1.3 1.7.9.8-.4.9-.3.5.5-.6.8-1.2.9-2 .2-1.9-1.6-2.6-.3-2.6 5.1 0 3.2.4 4.8 1.3 4.8s.8.3-.2.9c-.9.6-1 1.1-.2 1.5.6.4 1.1 1.5 1.1 2.4 0 1.5-.2 1.5-1 .2-.8-1.2-1-1-1 1 0 1.4-.4 5.6-.9 9.5-.9 7.1-.7 9 1 8 .5-.4 1.6-.2 2.5.3 1.4.8 1.4 1.1-.7 2.6-2.7 1.8-3.9 2-3.9.6 0-.6.3-.9.8-.9 1.8.3 3.2-.2 3.2-1.1 0-.5-1-.8-2.2-.7-1.5.3-2.5 1.5-3.4 4.7-.7 2.4-1.1 4.7-.8 5.2.3.5-.6 2.2-2 3.9-3 3.6-3.4 6.1-.8 5.3 1.3-.5 1.4-.4.3.4-1.1.8-1 1.2.5 2.1 1.1.6 1.5 1.1 1 1.1s-1.7-.7-2.7-1.6c-1.7-1.5-4.5-1.1-3.5.5.3.4-.8 1.8-2.4 3-1.7 1.2-3 2.7-3 3.4 0 .8.4.7 1-.3.7-1.1 1-1.1 1-.2 0 .7.5 1 1.2.6.6-.4.8-.3.5.2-.3.5-1.9 1.1-3.5 1.2-3 .2-11.6 4.5-10.8 5.3.2.2-.5.4-1.7.5-1.2 0-5.2.2-8.8.4-3.6.2-7.1 0-7.8-.4-.7-.4-1.9-.5-2.7-.2-.8.3-1.3.2-1-.2.3-.5-1-1.5-2.9-2.4-2-.9-3.2-1.1-2.9-.4.4.6-.4-.1-1.7-1.6-1.3-1.5-3.1-2.8-3.9-3-.8-.2-2.9-2.1-4.6-4.3-1.7-2.2-4.4-5.2-6-6.6-3.2-2.9-6.4-6.6-6.4-7.5 0-.3-1.4-2.6-3.1-5-1.7-2.5-2.8-5.2-2.5-6 .7-1.9 6.6-1.9 6.6 0 0 .9.7 1.3 1.8 1.1 1.1-.2 1.9.3 1.9 1 0 .8-.4 1.2-.9.9-.4-.3-.8 0-.8.5 0 .6.3 1.1.8 1.1.4 0 1.2 1 1.7 2.2.6 1.3 1.7 2.2 2.4 2 .7-.1.9.2.6.8-1 1.6 12.4 15 14.3 14.2.9-.3 1.3-.1.9.5-.7 1 3.4 4.3 5.7 4.7.6.1 1.6.5 2.1.8.6.4 1.7.2 2.5-.4 1.2-.8 1.1-.8-.5-.3-1.5.5-1.7.3-.8-.6 1.4-1.4 3.4-.3 2.7 1.5-.4 1 .7 1.3 4.1 1.3 2.5 0 4.8-.4 5.1-.9.3-.4.9-.6 1.4-.3.5.3 2.4-.3 4.2-1.3 2.3-1.3 3.3-2.6 3.3-4.3 0-3.3 1.2-4.8 3.5-4.6 1.9.1 1.9.2-.2 2.4-1.2 1.3-1.7 2.3-1.1 2.3 1.3 0 7.5-7.5 9.7-11.8 1-1.9 1.5-4 1.2-4.8-.3-.8-.2-1.2.4-.9.9.5 2.4-4.9 2.5-9 0-1.1.4-2.3 1-2.7.6-.5.5-1.2-.2-1.9-.9-.9-1-1.6-.2-2.6.9-1 .8-1.7-.2-3-.8-.9-.9-1.4-.3-1 1.8 1 2.1-.8 2.2-12.7.1-9.2-.2-11.2-1.6-12.3-.9-.8-1.1-1.1-.3-.7 1 .5 1.3.3.8-.9-.7-1.8 1.1-1.4 5.1 1.1zm-170 259.6c11.4 9.5 12.9 11.1 11.4 12.1-4.4 3-36.5 20.7-52 28.8l-17.3 8.9 8.8-12.9c27.7-40.5 33.9-49.1 34.9-48.5.6.4 7 5.6 14.2 11.6zm1136-1247.5c-1.1 9.2-2.2 15.1-3.3 16.7-2 3.1-8.8 6.3-13.4 6.4-4.8 0-3.5.8 3.3 2.1 6.3 1.1 14.2-.5 18.2-3.8l2.2-1.8-2.3-15.8c-1.3-8.6-2.5-16.2-2.7-16.8-.2-.7-1.1 5.2-2 13z"/><path d="M934.5 3221c-10 4.8-15.4 13.8-10.4 17.4 2.8 1.9 4.3 1.2 9.9-4.6 4.6-4.7 4.7-4.8 10.8-4.8 5 0 6.3-.3 7.2-1.9 1.4-2.8 1.3-3.8-1-6.1-2.7-2.7-11-2.7-16.5 0zm74.9.3c-5.5 2.7-7 4.8-5.4 7.8 1.3 2.3 4.8 2.5 7.6.4 3.4-2.6 8-1.9 12.4 2.1 4.1 3.7 6.5 4.1 8.4 1.1 1.5-2.4-.8-6.4-6-10-5.7-4-10.7-4.4-17-1.4zm3.1 16.1c-3.9 1.7-5.5 3.7-6.1 7.8-.5 2.7-.1 4.1 2 6.5 3.1 3.6 6.9 4.6 11.3 2.8 3.7-1.6 5.3-4.1 5.3-8.5s-1.6-6.9-5.5-8.6c-4-1.6-3.3-1.6-7 0zm-72.6 2.5c-4.4 4.4-4.3 10.2.2 14.3 8.4 7.8 20.5-1.2 15.7-11.7-2.7-5.9-11.2-7.3-15.9-2.6zm43.8 23.2c2.5 6.3 4.8 13.2 5.1 15.3.6 4.9-1.6 9.2-6.3 12.5-4.3 2.9-3.9 3.7 1.2 2.1 5.8-1.8 10.7-5.6 13.2-10l2.2-4-2.3-3.3c-3.4-4.9-16-22.1-16.9-23.1-.4-.4 1.3 4.3 3.8 10.5zm1347.8 43.3c-8.9 2.8-12.6 7-9.6 10.7l1.9 2.3 4.2-2.9c3.6-2.5 5.4-3 10.4-3.1 3.4-.1 6.7-.2 7.4-.3 1.7-.1 1.5-5.8-.2-6.4-3.5-1.4-10.5-1.5-14.1-.3z"/><path d="M2330.4 3318c-5.5 2.3-7.1 9.9-3 14.7 5.3 6.1 15.6 2.1 15.6-6.2 0-6.3-6.9-11-12.6-8.5zm68.6 2.5c-1.5 1.8-.7 4.3 1.7 5.1 7.2 2.4 14.3 6.7 16.7 10.4 3 4.5 7 5.5 8.1 2 2.6-8.1-21.2-23.8-26.5-17.5zm-1518.5 3.9c-.4 2.1-5.6 63.9-5.5 66.3 0 .9-1.8 1.3-5.7 1.3-7.4 0-30.5 2.5-42.6 4.5-14.7 2.5-49.6 9.5-52.3 10.5-3.7 1.4-13.1 8.1-20.3 14.4-5.1 4.4-7.2 5.6-9.8 5.6-1.8 0-3.3.4-3.3 1 0 .5-.5 1-1.1 1-.5 0-.7-.5-.4-1 .5-.8-15.7-1-52.2-.8-52.5.3-52.8.3-59.3 2.6-13.7 5-25.6 15.5-31.5 27.9-5.7 11.9-5.5 4.1-5.5 177V3794h162.3c89.2 0 288.2.3 442.3.6l280.1.7 1.2-4.4c.7-2.4 1.3-5.1 1.4-5.9.2-.8.6-2.1 1-2.8.5-.6.5-1.2.1-1.2-.3 0-.1-.7.6-1.5s1-1.5.7-1.5c-.4 0 .2-2 1.3-4.5 1.3-3 1.5-4.5.8-4.5s-.3-.7.8-1.6c1-.8 1.4-1.3.7-.9-.8.4-.8-.3.2-2.2.9-1.7 1.1-3.1.5-3.8-.6-.8-.4-1.8.6-3.1 1.4-1.8 1.5-1.8.4.3-.7 1.6-.7 2.3 0 2.3.5 0 1.1-.8 1.2-1.8.2-3.2.3-3.7 1-4.8 1.9-3 2.7-6.4 1.6-7-.6-.4-.8-.3-.5.2.3.6.2 1.6-.3 2.3-.5.9-.7.3-.7-1.7.1-1.7.4-2.9.7-2.7 1.1.7 2.9-1.1 3.3-3 .1-1.1.6-2.6 1-3.3.5-.7.3-1.2-.5-1.2-.9-.1-.8-.5.4-1.3.9-.7 2-2.6 2.3-4.3.4-1.6 1.4-4.8 2.2-7.1.8-2.3 1.2-4.6.8-5.2-.3-.6-.2-1.1.3-1.1 1.5 0 2.9-5.1 2.6-9-.2-2.4-.1-2.9.4-1.6.6 1.4 1.2.5 2.5-4 .9-3.3 1.6-7.3 1.6-8.9-.2-4.1.4-7.4 1.1-7 .3.2 1.2-.1 2-.6 1.3-.8 1.3-1 0-1.9-1.1-.7-1.1-1-.2-1 1.8 0 4.3-6.5 3.8-9.5-.3-1.4-.1-2.3.4-2 .7.5 2.9-4.4 3.4-7.8.1-.7.5-1.7.9-2.4.9-1.4-.2-4.5-1.4-3.7-1.8 1.1-.8-.5 2-3.4 2.4-2.4 2.9-3.6 2.6-6.3-.3-2.1-.1-2.9.4-2.1.7 1.1 1 1 1.5-.3.9-2.4.8-2.7-.6-1.9-.7.4-.5-.2.5-1.4 1.1-1.1 1.6-2.6 1.2-3.1-.3-.6-.1-1.1.5-1.1.7 0 1-.7.6-1.5-.3-.8-.1-1.5.3-1.5.5 0 .8-1.1.7-2.5-.2-1.3.1-2.2.5-1.9 1.3.8 2.8-6 1.5-6.8-.7-.5-.5-.8.4-.8 1.4 0 1.8-1.2 2.2-5.8.1-.6.5-1.2 1-1.2s.7-.4.3-.9c-.3-.5-.1-1.2.5-1.6.6-.4.8-1 .5-1.5-.3-.5-.1-1.1.4-1.4.5-.3.7-1.6.3-2.8-.4-1.6-.2-1.9.8-1.3 1 .6 1.2.3.8-1.3-.4-1.2-.2-2.2.4-2.2.5 0 .7-.4.3-.9-.3-.5-.1-1.2.5-1.6.6-.4.8-1 .5-1.5-.3-.5-.1-1.1.5-1.5 1.5-.9 1.2-2.7-.2-2-.7.4-.6.1.3-.7 1.7-1.4 4.2-7.8 3.4-8.6-.3-.3.1-1.2.8-2 1-1.3.9-1.4-.3-.7s-1.3.6-.3-.6c2.7-3.3-.9-15.1-4-13.2-.6.3-.7.1-.4-.4.4-.6 0-1.6-.8-2.3-.8-.7-1.5-.9-1.5-.5s-.7.2-1.6-.6c-1.3-1-1.7-1-2.5.2-.6 1-.9 1.1-.9.1 0-1.6 13.6-1.5-161.9-1.9-136.3-.3-143.4-.3-144.7 1.4-1.3 1.7-1.4 1.7-.8 0 .6-1.6-.4-1.7-11.3-1.7-20.9 0-22.4 1.2-29.4 23.5-2.8 8.8-6 18.9-7.1 22.5l-2.1 6.5-1.5-6.5c-13.5-62.7-30.5-116.3-47.2-148.9-8.9-17.5-15.3-26.6-26.4-37.7-15.1-15.1-18.1-16.3-51.1-21.3-14.3-2.2-35.9-5.4-48-7.1-12.1-1.7-23.4-3.3-25.1-3.6-3.8-.5-3.7-.3-5.5-21.1-.7-7.8-1.6-14-2-13.7-.4.2-5.7.5-11.6.5-22.7 0-44.8-9.8-65.1-28.9-6.3-5.9-7.3-6.6-7.7-4.8zm140.3 225.8c2.4 2.4 1.2 5.7-4.3 12-6.2 7-7.3 9.7-5.6 13.4 3.5 7.8 21 7.6 44.7-.7 22.1-7.6 32.2-5.1 39.2 10 2 4.3 2.4 6.3 1.9 10.7-1.6 15.2-18.5 32.5-37.7 38.5-17.2 5.4-62.2 6.7-81.7 2.4-2.2-.5-2.3-1.1-2.3-8.4 0-12.7-2.8-25.8-8.3-39.1-.5-1.1 1.8-2.9 8.7-6.8 7.9-4.4 9.6-5.7 10.1-8.2 1-4.5 8-14.4 12.2-17.3 4.9-3.4 10.7-5.7 16.3-6.7 2.5-.4 4.7-.8 5.1-.9.3 0 1 .4 1.7 1.1zM1080 3660c6.6 38.2 9.9 49 20.5 66.8 6.1 10.4 12.3 18.8 20.5 27.6l5.7 6.1-1.9 6.2-1.9 6.3H1101c-12.1 0-22-.3-22-.8 0-.4-.7-12.4-1.5-26.7-3.4-59.7-4.7-119.8-2.5-112 .5 1.6 2.7 13.6 5 26.5zm289.5 7.5c1.8.9 4.2 2.5 5.4 3.6 1.2 1.1 2.6 1.7 3.3 1.3.6-.4.8-.3.5.3-.4.6.3 2.8 1.4 4.9 1.7 3.4 1.9 5.1 1.5 12.9-.3 4.9-.6 10.1-.7 11.5-.1 1.4-.4 1.9-.6 1.2-.5-1.4-4.7 4.2-4.8 6.3 0 .5-.7 1-1.5 1.1-.8 0-3.5 1-6 2.2-5.6 2.7-14.8 3-18.8.5-4.1-2.6-9.2-7.5-9.2-9.1 0-.7-.5-1-1.2-.6-.6.4-.8.3-.5-.3.4-.6.2-2.4-.3-3.9-1.3-3.8-2.1-17.1-.9-15.3.6 1 .9.8.9-1 0-1.3 1.6-4.5 3.5-7.1 1.9-2.6 3.2-5 2.9-5.3-.3-.3.3-.4 1.3-.4 1 .1 1.7-.3 1.6-1-.2-.7.4-1 1.2-.7.8.4 1.5.1 1.5-.4 0-2.4 14.8-2.9 19.5-.7zm1027.6-333.1c-3.1 1.7-5 5.3-5.1 9.4 0 2.5.8 4.1 3.1 6.3 4.2 3.9 8.7 3.9 13.1 0 8.6-7.7-1-21.3-11.1-15.7zm-56.8 22.1c-4.3 4.2-7.3 8.1-7.3 9.3 0 1.1 1.9 3.7 4.4 5.9 4.7 4.1 15.3 10 16.3 9 .3-.4-1.5-2.9-4.1-5.8-6.2-6.9-6.5-8.5-2.7-16.9 1.7-3.9 3.1-7.5 3.1-8 0-2.3-2.9-.4-9.7 6.5zm3374.9 37.2c-1.8 1.6-11.7 12.7-46.2 51.8-5.2 5.9-9.7 11.2-9.9 11.8-.6 1.7 8.7-.1 14.6-2.8 3-1.3 9.8-5.8 15.1-9.8 18.8-14.2 27.8-18.2 32.1-14.3 1.8 1.6 2.1 1.6 5.2-.3 4.7-2.9 9.7-2.8 10.4.1.5 2.1-.8 7.8-3.1 13.3-.4 1.1 8.3-8 19.4-20.2 11.1-12.2 20.2-22.8 20.2-23.5 0-.7-.9-2.8-2-4.6l-2-3.2h-25.9c-23.2 0-26.1.2-27.9 1.7zM4483 3477.1c-1.9 1-6.4 2.8-9.9 3.9-5.7 1.8-9 2-35.1 2-49.8 0-74.2 5.3-86 18.8-4.4 4.9-5.6 9.1-4.6 16l.6 4.7-9.3 9c-11.2 10.8-15.2 18-16.7 29.8-1.3 10.8.9 27.9 5.1 38.5 1 2.5 1.4 1.8 4-8.3 3.1-11.8 7.4-21.9 11.6-27.3 2.7-3.5 7.8-7.2 10.2-7.2.7 0 3.8 2.5 6.8 5.5 10.4 10.4 16.6 10.6 50.8 2 11.6-2.9 23.7-5.6 27.1-6 7-.8 17.1.8 22.4 3.5 4.4 2.2 10.7 9 15.6 16.5 3.6 5.8 13.3 24.6 17.7 34.7l2.6 5.8 5-2.6c7.4-3.9 16.2-4.3 22.3-1.1l4.7 2.4 1.1-5.1c4.4-20.3 5.2-44 2-57.3-5.5-22.9-22.2-42.6-45.4-53.4l-6.3-2.9 3.3-3.5c3.7-4 6-12.4 4.7-17.3l-.8-3-3.5 1.9z"/><path d="M4338.2 3598.7c-3.9 1.9-9.2 7.7-9.2 10.1 0 2.2 1.9 4.2 4 4.2.9 0 3.1-1.6 5-3.5 2.6-2.7 4.2-3.5 7-3.5 2 0 4.5.7 5.6 1.5 3 2.3 6.3 1.9 7.6-1 1.4-3.1-.1-5.1-5.7-7.6-4.9-2.3-10-2.4-14.3-.2zm77.8 8.6c-3 1.5-3.8 5.8-1.5 8.1 1.2 1.2 2.7 1.4 5.4 1 5-.8 9.9 1.5 14 6.7 3.4 4.2 6 4.9 8.5 2.3 2.8-2.8 1.9-6.2-2.9-11-7.5-7.5-17-10.4-23.5-7.1zm-1890.4 6.8c-.9 2.2-1.3 4.5-1 5.1.4.6.2.8-.3.5-.6-.4-1.4 0-1.7.9-.8 2.1-.8 2.6.2 2 .4-.2.8.5.9 1.7 0 1.2-.1 1.6-.4.9-.3-.6-.8-1.2-1.3-1.2-1.1 0-3.1 6-2.4 7.1.3.5.1.9-.4.9s-1.4 1.2-2.1 2.6c-.9 2-.9 3 0 4 .9 1.1.9 1.3-.2.9s-2 1.1-3.4 5.2c-1.1 3.2-1.9 6.1-1.7 6.5.1.5-.2.8-.7.8-.5 0-1.1.9-1.4 2-.3 1.3-.1 1.8.5 1.3.6-.3.8-.1.4.5-.3.5 0 1.3.6 1.6.7.3.4.4-.8.1-1.7-.4-2.3.1-3.1 3-.8 2.6-.8 3.4 0 2.9.7-.3.4.1-.6.9-1.1.9-1.5 2.1-1 3.2.4 1.3.3 1.6-.5 1.1-1.6-1-1.5.7.1 2.3 1 1 .8 1.1-.6.5-1-.3-1.7-.3-1.6.2.1.5-.3 2.2-1 3.9-.9 2.1-1 3.8-.3 5.7.8 2.1.7 2.5-.4 2.1-.8-.3-1.1-.9-.8-1.4.3-.5 0-.9-.6-.9s-1 .6-.9 1.2c.2 1.4-.6 4.2-2.2 7-.7 1.4-.5 1.6.9 1.2 1.2-.4 1 0-.5 1.2-2.3 1.7-3.3 5.1-1.1 3.8.7-.4.8-.3.4.5-.4.6-1.1.9-1.5.7-1-.6-8.1 22.2-8.5 27.6-.2 2.3-.7 6.7-1.1 9.5-.6 4-.4 5.3.5 5.3 1 0 1 .3.1 1.4-1.6 1.9-.6 35.7 1 36.7.8.4.7.8-.2 1.2-.8.3-.9.6-.4.6.6.1.9 2 .8 4.3 0 2.3.1 5.7.4 7.5l.6 3.3h70.3c67.8 0 70.5.1 75.4 2l5 2v-116.6l-3.2-1.9c-13.5-7.8-39.7-24.5-76.6-49-7.9-5.2-10.6-6.5-11.5-5.6-.9.9-.8 1.4.3 2.1 1.3.9 1.3 1 0 1s-1.3.1 0 1.1c1.2.8 1 .9-.9.4-1.5-.5-2.1-.3-1.7.3.3.6.2 1.3-.3 1.6-.5.4-.8-.2-.7-1.1.2-.9.8-1.9 1.4-2.1.6-.2.8-1 .5-1.8-.3-.7-1-1.1-1.6-.7-.6.3-.7.1-.3-.6.4-.6 1.2-.9 1.7-.6.5.4.9.2.9-.2 0-1.4-2.3-3.3-3.9-3.3-1.4 0-1.4.2-.1 1.1 1.2.9 1.2 1-.3.5-1-.3-2.2-.6-2.5-.6-.4 0 0-.4.8-1 .8-.5 1.2-1 1-1.2-2-1.4-12.7-8.6-13.6-9.1-.7-.4-1.8.9-2.8 3.4zm22.7 178c-.5.5-.6-35.5-.3-79.9l.5-80.7.3 79.9c.1 44-.1 80.3-.5 80.7zm1790.5-173.5c-3.4 1.8-4.8 4.3-4.8 8.7 0 8.2 11 12 16.4 5.6 4.1-4.8 2.9-11.7-2.5-14.5-3.5-1.8-5.7-1.7-9.1.2zm70.3 7.5c-5 4.7-5 11.1.1 15.4 3.4 2.8 7.5 3.2 11.7 1 5.8-2.9 6.6-12.4 1.4-16.5-3.5-2.7-10.2-2.7-13.2.1zm-50.8 29c-10.6 14.6-10.6 14.8-2.9 21.6 4 3.5 12.1 7.2 13.2 6 .3-.2-1.1-1.5-3.1-2.8-4.5-3.1-6.9-8-6.1-12.8.3-2 2.4-8.3 4.6-14 2.3-5.7 3.9-10.5 3.8-10.6-.2-.1-4.5 5.6-9.5 12.6z"/><path d="M4326.5 3655.4c-.4 2.1-.5 10.6-.2 19 .4 11.8 1.1 17.3 3.1 25.1 8 30.7 27 52.4 51.7 59.1 9.6 2.6 28.4 2.4 42.7-.4 12.9-2.6 30.8-8.2 36.7-11.5l4-2.3 4.2-18.9c3.7-16.7 6.8-28.3 9-34.2.4-1.1-1.1-.2-3.6 2-4.9 4.4-11.3 7.6-15.3 7.7-2.1 0-3.2-.9-5.2-4.3-7.5-12.7-21.5-18.3-39.6-15.7-4.1.6-16 3.1-26.5 5.6l-19 4.7-9.1-1.7c-10.7-2-13.9-1.5-16.1 2.7l-1.6 3.1-1.8-3.7c-3.1-5.9-6.9-17.3-9.9-29.2-2.7-10.5-2.8-10.8-3.5-7.1zm180.7 8.4c-3.8.3-4.4.7-6.2 4.2-1.9 3.8-5.6 6.8-6.7 5.6-1.3-1.3-9.2 12.9-12.2 22-3.2 9.4-11.5 44.3-10.8 45 .8.9 10.7-6.5 16.8-12.6 15.7-15.5 24.7-37.6 23.7-58l-.3-6.5-4.3.3zm-2264.7 74.6c-21.7 21.6-44.8 42.2-56.9 50.7l-6.9 4.9h94l.6-8.3c1.5-18.4.8-24.4-6.5-54.7l-3.3-13.5-21 20.9zm2147 31.6c-1.1.4-2.3.6-2.7.4-.4-.3-.9 0-1.3.5-.3.6-1.2.8-2 .4-.9-.3-2.1 0-2.9.6-.7.6-1.6.8-1.9.5-.3-.4-1.4-.3-2.4.1-1 .5-2.1.9-2.5 1-.5.2-1 .4-1.3.5-.8.4-2.4.7-4.1.9-1.1.1-1.4.7-.9 1.8.5 1.5.4 1.6-.6.5-1.6-1.5-3.3-1.6-2.3 0 .5.7.3.8-.5.4-.7-.5-2.1 0-3.2 1-1.5 1.4-1.7 2-.6 3.2.9 1.2.9 1.4 0 .8-1-.5-1.1.1-.7 2.6.3 1.8.8 4 1.1 4.8.3.8.7 2.4.8 3.5.1 1.1.5 3.4 1 5 1.5 5.4 1.6 6 1.7 7.2.1.7.6 1.3 1.1 1.3.5 0 .6-.8.2-1.8-.5-1.3-.4-1.4.6-.5.9.9.9 1.6.1 2.5-1.1 1.4.6 8.8 2 8.8.5 0 .8 1.1.8 2.4 0 1.4.5 2.8 1 3.1.6.3 1 1.5 1 2.5s.5 2.2 1.2 2.6c.7.5.8.3.3-.6-.5-.9-.4-1.1.4-.6.6.4.8 1.2.5 1.8-.8 1.2 2.5 8.8 3.8 8.8.5 0 .6-.6.3-1.3-.4-.6 0-.3.9.7 1.3 1.6 1.8 1.7 3.3.5 1.7-1.3 1.7-1.2 0 .8-1.8 2-1.8 2.2 0 3.2 1 .6 1.2 1.1.6 1.1-.7 0-1.8-.9-2.5-2-2-3.2-3-2.3-1.3 1 .9 1.8 2.1 2.8 2.7 2.4.6-.4.8-.3.4.4-.3.6-.2 1.3.4 1.7.6.4.8 1.1.5 1.6-.4.5.1 1.2.9 1.5.9.3 1.6 1.2 1.6 2s.5 1.4 1 1.4c.6 0 1 .4 1 1 0 .5.7 1.8 1.6 2.7.8 1 2.3 2.9 3.3 4.2 1.4 1.9 2 2.1 2.6 1.1.6-.9.4-1.1-.5-.5-.9.5-1.1.4-.6-.4.4-.6 1.2-.9 1.7-.5.5.3.7.9.5 1.3-.3.4-.1 1.3.5 2.1.7 1.2.9 1.1.9-.5 0-1.3.3-1.6.8-.8 1 1.5 6.6 2.2 7 .8.2-.5-.2-1.1-.9-1.4-.8-.2-.9.1-.3 1 .7 1.2.5 1.2-.9.1-.9-.8-2.2-1-2.9-.6-.9.6-.9.3.1-1 .8-.9 2.1-1.4 2.9-1.1 1.1.4 1.2.2.4-.8-.9-1-.6-1.3 1.2-1.3 1.2 0 2.3.6 2.3 1.3 0 .6-.4 1-.9.7-.4-.3-.8 0-.8.5 0 1.7 3.7 1.3 4.4-.4.3-.8 1.1-1.4 1.8-1.3.7.2 1.2-.3 1.1-1-.2-.6.4-1.2 1.3-1.2.8 0 1.2-.5.9-1-.3-.6 0-1 .8-1s3.8-2.7 6.8-5.9c7.1-7.8 7.9-8.8 7.2-9.5-.4-.3-.2-.6.4-.6.6 0 1.8-1.2 2.8-2.6 1.2-1.8 1.3-2.4.4-1.9-.8.4-.3-.3 1.1-1.4 1.5-1.3 2-2.1 1.1-2.1-1 0-.8-.5.6-1.8 2.9-2.5 4.7-6.2 3.1-6.2-.8 0-.9-.3-.3-.8 1.3-.9 1.8-3.2.7-3.2-.4 0-1.3.4-2 1-.7.5-.6.2.2-.7 1.2-1.3 1.8-1.4 2.9-.5 1.1.9 1.6.7 2.5-1.4 1.5-3.1 1.5-4.7.2-3.9-.6.4-.7 1.1-.4 1.7.4.7.2.8-.5.4-.6-.4-.9-1.2-.5-1.7.3-.6-.5-.7-2.2-.3-1.5.4-3.6.8-4.8.8-1.1.1-2 .8-1.8 1.5.1.7-.2 1-.7.6-.6-.3-.8-1.2-.4-2 .4-1.1-.3-1.5-2.8-1.5-1.9-.1-5.9-.9-8.9-2-3-1-5.8-1.6-6.2-1.4-.5.3-1.1-.1-1.4-1-.3-.8-1.2-1.7-1.9-2-1-.3-1.2 0-.8 1.1.4 1.1.2 1.4-.5.9-.7-.4-1.2-1.3-1.2-1.9-.1-.7-2.1-2.8-4.6-4.7-2.5-1.9-6.2-5.5-8.1-8-3.3-4.3-3.5-4.7-3-11.2.3-4.2.1-7.1-.7-7.9-.8-.9-.8-1 .2-.5.7.4 1.2.1 1.2-.8 0-2-1.1-2.5-3.5-1.6zm-1753.6 80c-4.5 2.6-13.6 3-74.4 3-59.7.1-63.6.2-63 1.8.4.9.8 2.6.9 3.7.3 2.2 3.5 12.4 4.4 14 .3.5.7 2 .8 3.3.4 3.6 1.1 3.7 1.9.3.7-3.5 2-4.7 3.1-3 .4.7.3.9-.3.6-.6-.4-1.5 1.1-2.1 3.5-.8 3.2-.8 4.6.3 6.1.7 1.1 1.1 2.6.8 3.3-.3.8 0 1.4.6 1.4s.8.7.4 1.7-.2 1.4.4 1c.7-.5.9.1.5 1.5-.3 1.2-.1 1.9.5 1.5.5-.3.9.4.8 1.6-.1 1.2.5 3 1.3 3.9.8 1 1 1.8.4 1.8-1 0 .1 6.1 1.6 8.5.7 1.1.8 1.7 1 5.3.1 1.3.6 2.1 1.1 1.8.5-.3 1.1.1 1.5.9.3.8.1 1.5-.4 1.5-.6 0-1 .5-1 1.1 0 .5.4.8.9.5.4-.3.7.7.5 2.2-.1 1.4.3 3.3.9 4 .6.8 1 2.7.9 4.3-.2 1.6 0 3.4.4 4 .4.7.9 2.6 1 4.3.2 1.7.6 4 .8 5.1.3 1.1.5 2.4.5 2.8.1.5.6.5 1.2.1.8-.5.8-.1 0 1.4-1.3 2.4-1.1 21.7.2 19.9.6-.8.7-.5.3.6-.3 1-.6 2.1-.6 2.3 0 .3-.4.3-.9-.1-.6-.3-1 .3-.9 1.2 0 1.8-3.1 12.9-4.7 16.7-.7 1.6-.5 1.8.8 1.3.9-.3 1.7-.2 1.7.3 0 .6-.9 1-2 1s-2 .3-2.1.7c-.2 2.7-.9 4.7-1.6 5.2-.5.3-2 2.4-3.3 4.6-1.3 2.2-3.7 5.7-5.3 7.8-2.5 3.2-2.8 4.1-1.6 4.9 1.1.8 1.1.9-.2.5-1-.3-2.6.5-4 2-1.3 1.5-1.9 2.3-1.2 1.9.6-.3 1.5-.2 1.8.4.4.6.3 1-.2.9-2-.3-3.3.4-9.3 5.6l-6.4 5.5h-133.1l-4-7.7c-5.5-10.6-18.5-29.8-28.2-41.8-31.9-39.3-76.8-73.1-126.2-95-18.4-8.1-44.3-16.3-57.5-18.1-4.9-.7-5.3-2.4-.5-2.4 1.6 0 2.9-.4 2.9-.8 0-.5 1.5-.7 3.3-.5 2.5.3 2.8.1 1.2-.5-1.1-.5-8.6-1.2-16.7-1.6-8.1-.3-18-1-22-1.5-4-.6-9.3-1.2-11.8-1.5-6.7-.7-17-2.4-31.6-5.1l-13.1-2.5-99.4.2-99.4.3 11.2 6.8c6.3 3.8 11.8 6.5 12.5 6.1.6-.4.8-.3.5.3-1 1.7 31.5 18.9 33.5 17.7.6-.4.8-.3.5.3-.7 1.1 5.5 4.1 29.1 14.2 7.9 3.4 14.7 5.9 15.3 5.6.5-.4.9-.2.9.2 0 1.3 12.8 5.5 14.1 4.7.8-.4.9-.3.5.4-.9 1.6 37.6 13.6 58.6 18.2l5.8 1.3-5.8 6.6c-3.1 3.6-9.3 10.7-13.7 15.6-7.3 8.3-33 37.6-46.5 53-67 76.6-122.6 135.2-138 145.4-16 10.7-48.2 23.7-69.2 28.1-11.7 2.4-28.9 3.9-37.8 3.2-5.7-.4-7.4-1.1-13.5-5.2-13.2-8.9-27.5-15-35.2-15-4.5 0-9.3 2.6-9.3 4.9 0 3.4 8.8 19.4 15.7 28.6 7.2 9.7 31.3 34.4 37.8 38.7l4 2.7 12-2.5c16.1-3.4 38.8-4.3 49.5-2 7.4 1.6 18 6 18 7.5 0 .5-5.7 6.1-12.7 12.6-7.1 6.5-16.5 15.3-21 19.6l-8.2 7.7 3.8 4.3 3.8 4.3 25.7-16.7c21.7-14.1 27.1-17.1 34.9-19.7 16.5-5.6 27.3-13.5 32.1-23.9 1.6-3.6 2.1-6.4 2-13.1 0-8.1-.4-9.6-4.9-20.2-.6-1.4 1.4-3.1 9.9-8.6 5.8-3.8 10.2-7.3 9.8-7.7-.4-.5-.2-.5.5-.2.6.4 4-.9 7.5-2.9 9.6-5.5 33.1-16.2 54.3-24.9 56.8-23.1 74.1-31.5 99.2-48.2l11.1-7.4.7-5.2c3.5-27.9 11.6-58.7 20.6-78.2 12.6-27.4 32-52.9 56.8-74.7 14.6-12.9 19.9-15.8 28.6-15.8 9.7.1 17.2 4.6 21.6 13.2 2.1 4.1 9 38.2 11.4 56.2.8 6.4 1.5 18.4 1.5 26.7v14.9l42.3.1c23.2 0 41 .4 39.6.9-1.5.4-4.3 2.5-6.4 4.6l-3.8 3.9 3.4-4 3.3-4-3.3-.3c-1.8-.2-4 .3-4.9 1-1.1.9-1.4 1-.8 0 .6-.9-6.6-1.2-34.3-1.2-27.4 0-35.1.3-35.2 1.2-.1.7-.2 2.3-.3 3.5 0 1.2-.4 2.5-.8 2.9-1.2 1.2-.9 4.4.4 4.4.7 0 .6.5-.4 1.2-.9.7-1.8 2.5-2.2 4-.5 2.3-.4 2.6 1.1 2.1s1.4-.3-.3 1.3c-1.2 1-2.9 4.8-3.9 8.4-1 3.6-2.6 8.3-3.6 10.5-2.7 6.3-3.3 8.9-1.9 8 .9-.5 1.1-.4.6.4-.4.6-1.2.9-1.7.6-1.1-.7-3.2 4.3-2.3 5.6.3.5 0 .8-.6.7-.6-.2-2.3 2.6-3.9 6.2-2.7 6.3-3.1 9.7-.9 8.4.7-.4.8-.2.4.5-.6.9-1.1.9-2.1.1s-1.6-.3-2.6 2.2c-.7 1.8-1.5 3.7-1.7 4.2-.3.5 0 .6.7.2.7-.5.9-.1.5.8-.3.9-1 1.4-1.4 1.1-1.3-.8-3 2.6-17.9 35.5-18.8 41.4-38.6 87.7-52.9 123.5-9.9 24.8-11.6 30-12 35.9-.4 5.6-.8 6.9-2.3 7.3-2.3.6-5.2 9.3-11.5 34.5-5.5 22.2-10.1 35.3-17 49.2-12.5 25.1-34.1 51.7-44.6 54.7-7.3 2.1-26-.1-31.4-3.6l-2.3-1.5 17.3-26.2c23.8-36.2 28.2-44.6 35.2-67.2 3.6-11.7 8.4-32.9 8.4-37.1v-2.5h-66.7c-39.3 0-70.5.4-75.8 1-47.1 5.4-85.5 25.9-111.4 59.4-23.9 30.9-36 47.7-37.7 52.1-2.9 7.5-2.5 16.5.9 24 3.6 7.8 7.8 12.1 15.2 15.6l6 2.9H1927l-1 2.6c-2.2 5.6-1.4 7.2 4.2 8.9 9 2.6 22.5 3.8 36.8 3.1 13.4-.7 30.9-2.8 38.5-4.7 11.8-3 11.6-2.9 13.1-6.5l1.4-3.4h26.4c22.8 0 26.5.2 27 1.5s1.6 1.4 5.8.9c2.9-.4 5.7-1 6.3-1.5.5-.5 102.4-.9 235-.9h234l6.5-2.2c11.2-3.7 12-4 14.6-6 1.3-1.1 3.3-3.7 4.4-5.9 2-3.8 2-6.6 2-172.4V4113h9.3c5 0 11.2-.5 13.6-1.1 11.2-2.5 22.9-11.3 28.4-21.3 6-10.8 5.7-4.7 5.7-128.3 0-62.3-.3-113.3-.7-113.3-.5 0-1.5.5-2.4 1zm-87.2 126.3c-.1 22.1-.2 4-.2-40.3s.1-62.4.2-40.3c.2 22.2.2 58.4 0 80.6zM2413 4213v100h-135v-200h135v100zm131.8-7.5c.2 50.6 0 111.6-.4 135.5l-.6 43.4-7.6-8.4c-13.4-15.1-27.5-28.5-35.7-33.9-10.3-6.8-29.6-16.1-40.7-19.7l-8.8-2.8V4113l46.8.2 46.7.3.3 92zM591 3941.5c0 61.1.3 90 1.1 93.7 2.2 10.2 7.2 19.4 15.1 27.2 11.5 11.4 21.1 15.2 41.1 16.3l11.7.6v379.3l2.8 5.5c3.9 7.8 9.2 11.2 18.3 11.7 11.5.7 19.8-4.6 23.5-15 1.2-3.5 1.4-30.9 1.4-192.9V4079h114.2l-.2 190.2c-.2 145.4 0 191 .9 193.3.7 1.6 2.7 4.5 4.4 6.4 10.9 11.4 31.5 8.6 37.8-5.3 1.8-3.9 1.9-11.4 1.9-194.3v-190.2l77.8-.4c42.7-.2 100.8-.5 129-.8 50.6-.4 51.3-.4 51.7 1.6.3 1.1 1.4 8.3 2.6 16 4.3 29.2 11.4 61.1 31 140 13 52.2 20.8 86.2 26.6 116.5l3.7 19.5.5 45.1.6 45.1 2.8 4.1c1.5 2.3 4.6 5.4 6.9 6.9 3.9 2.6 4.9 2.8 15.2 2.9 18.1.2 41.1 5.1 73.3 15.5 16.6 5.3 34.5 10 46.3 12.1 11.1 1.9 37.7 1.7 47.5-.5 10.7-2.3 19.8-6.8 22.5-11.2 2.3-3.7 5-14.9 5-21 0-5.4-5.7-17-10.6-21.6-9.3-8.8-19.1-13.5-45.9-22.4-22-7.2-39-14.7-52.5-23-8.5-5.2-10.2-5.9-16.1-6.3-5.2-.3-7.6 0-11.7 1.8-8.6 3.7-12.5 9.3-18.7 26.7-4.7 13.2-5 13.4-12.2 9.9-9.5-4.6-21.8-13.3-26.9-18.9-4.9-5.4-9.4-13.7-9.4-17.3 0-1.1-.6-3.4-1.4-5-.8-1.6-1.7-5.7-2.1-9.1-.7-6-.6-6.2 1.7-6.7 1.2-.3 20.1-2.2 41.8-4.2 21.7-2 41.7-3.9 44.3-4.2l4.9-.4-.6-6.7c-.4-3.6-3.1-41.5-6.2-84.1-7.8-111.1-11.2-149.6-16.6-190.4l-2.2-16.8 3.4-2.8c1.8-1.5 3-3.2 2.7-3.8-.5-.6.1-.8 1.5-.4 1.7.4 2 .2 1.5-1.1-.4-1-.2-1.6.6-1.4.7.1 1.1-.3 1-1-.2-.7.3-1 1.1-.7 1.7.7 4-2.2 3.2-4.2-.4-1-.1-1.4.6-1.1 1.4.4 6-5.1 5.3-6.4-.3-.4.1-.9.7-1.2 1-.3 1-1-.1-2.8-1.2-2.1-1.2-2.2.1-1.2 1.2 1 1.6.7 2.6-2.2 1.9-5 2.3-9.7.9-8.8-.7.3-.4-.3.6-1.4 2.1-2.4 2.3-4 .2-2.3-2 1.7-1.9.6.1-1.5 1.4-1.3 1.4-1.8.2-3.2-.7-1-.8-1.4-.1-1 .7.5 1.3-.1 1.5-1.4.3-1.9 1-2.1 8-2.4 8.8-.4 8.3-1 9.3 10 .4 3.8 1.7 12.8 3.1 20 4.3 23.5 7.1 33.8 34.9 129.5 15.1 52 30 108.8 39.7 152l2.4 10.5 5.5.3c6.3.3 94.1-5.5 97.8-6.5 2.3-.6 2.3-.8 1.7-8.7-16.7-218.7-31.1-312.5-55.3-359.9-9.7-18.9-15.6-23.7-52.3-42.1-43.9-21.9-106-47.3-159.3-65l-19.8-6.6H591v88.5z"/><path d="M1028.8 4239.7c-.4 245.6-.7 219.1 1.9 223.8 4.5 8.3 11.4 12.5 20.8 12.5 9.5 0 16.9-4.5 20.6-12.5 1.8-3.8 1.9-11.2 1.9-194.3V4079h-45l-.2 160.7zm456.5 132.2c-10.2 2.6-16.8 10.2-20.9 24.1-4.7 15.8-5.8 18.5-7.8 18.8-3 .6-23.6-10.3-30.9-16.3-7.3-6-12.3-12.9-13.3-18.5-1.2-6.3-1.7-5.5-4.5 6.6-4.3 17.9-6.1 31.5-5.7 41.3.3 7.7.7 9.4 3.3 13.6 5.2 8.4 12.6 10.8 43 14 16.9 1.8 34.7 5.1 54.5 10 28.9 7.2 34.5 8 58 8 19.1 0 22.5-.3 30.4-2.3 23.4-5.9 28.8-11.8 29-31.2 0-7.9-.2-8.9-3.3-14.3-4.2-7.2-11.2-13.4-20.4-17.9-9.7-4.8-14-6.2-36.2-11.8-21.8-5.4-33.8-9.7-51.5-18.1-12.6-6.1-18-7.4-23.7-6zm2619.2 55.7c-17.4 3.6-40.7 6.5-61.5 7.4-29.8 1.5-30.7 1.6-32.6 4.6-2.5 3.7-.6 9.3 10.5 30.9 15.3 29.6 16.8 34.4 19.6 61.2 3.1 29.8 2.1 28.7 14.5 19 18.8-14.7 28.2-20 56-31.6 25.5-10.6 25.7-10.7 27.8-14.8 5.2-10.2 6.9-32.7 3.3-44.2-2.5-7.9-9.7-17.9-17.9-24.7-10.2-8.5-12.4-9.3-19.7-7.8zm1279 26c-2.1.8-41.4 7.5-64.8 11-13.3 2-24.5 3.9-24.8 4.2-.8.8-3.5 27.1-4.5 43.3l-.7 10.7 34.4.6c18.9.3 65.3.9 103.2 1.2l68.7.6v-6.6c0-13.6-6.4-25.7-17.7-33.3-8.5-5.6-18.5-9.3-43-15.7-22.5-5.9-32.6-9.2-41.5-13.7-5.5-2.8-7.2-3.2-9.3-2.3z"/></svg>