<?xml version="1.0" standalone="no"?>
<!DOCTYPE svg PUBLIC "-//W3C//DTD SVG 20010904//EN"
 "http://www.w3.org/TR/2001/REC-SVG-20010904/DTD/svg10.dtd">
<svg version="1.0" xmlns="http://www.w3.org/2000/svg"
 width="6500.000000pt" height="5000.000000pt" viewBox="0 0 6500.000000 5000.000000"
 preserveAspectRatio="xMidYMid meet">
<metadata>
Created by potrace 1.16, written by Peter Selinger 2001-2019
</metadata>
<g transform="translate(0.000000,5000.000000) scale(0.100000,-0.100000)"
fill="#000000" stroke="none">
<path d="M37757 45300 c-245 -28 -498 -148 -626 -297 -53 -62 -107 -165 -125
-239 -8 -33 -24 -151 -36 -264 -48 -482 -84 -611 -201 -735 -118 -125 -276
-166 -624 -164 -148 2 -209 -2 -275 -16 -443 -91 -811 -465 -945 -960 -104
-384 -61 -897 97 -1169 82 -141 177 -218 390 -319 118 -56 171 -98 194 -154
20 -46 17 -147 -6 -237 -128 -502 -124 -810 14 -979 51 -62 130 -119 203 -147
179 -67 492 -66 748 1 44 12 84 25 88 29 7 6 62 199 263 920 157 562 247 866
271 913 38 76 126 162 202 200 61 30 74 32 166 32 86 0 107 -4 150 -25 108
-53 190 -171 221 -320 21 -100 14 -326 -15 -461 -40 -185 -161 -579 -284 -919
-33 -92 -33 -97 -20 -145 56 -205 75 -329 80 -537 l5 -206 24 -6 c13 -4 24
-10 24 -15 0 -4 -13 -41 -30 -80 -44 -109 -106 -304 -132 -421 -19 -88 -23
-132 -22 -275 0 -151 3 -181 27 -268 34 -128 102 -264 177 -357 34 -41 86
-107 116 -147 94 -123 210 -202 377 -258 l106 -35 843 -80 c464 -44 913 -86
998 -94 85 -9 286 -27 445 -42 160 -14 296 -28 303 -30 9 -2 3 -23 -22 -71
-159 -318 -194 -702 -115 -1277 18 -133 80 -503 94 -564 5 -19 2 -23 -12 -18
-27 8 -466 63 -643 80 -697 68 -1483 76 -2180 20 -2118 -167 -4102 -854 -5765
-1996 -566 -389 -997 -749 -1511 -1262 -404 -405 -639 -672 -945 -1076 -983
-1295 -1655 -2782 -2033 -4500 -101 -459 -203 -1104 -240 -1525 -20 -216 -37
-434 -46 -585 -5 -96 -12 -204 -14 -239 l-4 -64 107 6 c397 20 847 215 1256
543 235 189 572 545 799 842 210 277 390 545 588 877 452 756 831 1543 1508
3130 181 423 270 587 518 950 281 412 541 726 911 1096 251 250 404 388 647
583 1197 959 2682 1585 4224 1780 394 50 647 66 1065 66 542 0 972 -38 1470
-130 203 -37 517 -109 529 -120 5 -5 -7 -64 -30 -142 -35 -120 -39 -144 -39
-245 0 -97 3 -115 21 -140 50 -67 111 -90 339 -129 179 -31 357 -75 555 -139
315 -101 483 -130 706 -122 205 7 297 32 404 108 12 9 44 -5 150 -66 774 -444
1470 -1067 2071 -1855 207 -271 435 -610 636 -945 335 -558 623 -1123 1080
-2115 377 -819 445 -963 609 -1295 435 -880 774 -1398 1182 -1802 462 -458
1007 -707 1600 -730 l152 -6 0 69 c0 153 -36 622 -76 974 -260 2334 -1079
4398 -2404 6060 -801 1004 -1766 1846 -2890 2519 -910 546 -1951 982 -3000
1256 -80 21 -149 42 -155 46 -11 8 -2 996 13 1392 l7 208 77 -94 c117 -142
290 -330 633 -687 349 -364 416 -436 523 -565 41 -49 80 -93 86 -97 16 -11 78
-10 138 3 129 27 298 140 477 318 91 91 211 227 235 269 5 8 -170 256 -493
700 -276 378 -791 1085 -1145 1571 -354 486 -657 892 -672 902 -173 114 -845
177 -2076 195 l-468 7 0 31 c0 16 -5 78 -12 136 -10 98 -9 128 26 440 20 184
43 389 51 455 58 480 80 1190 41 1305 -79 231 -314 485 -680 736 -77 53 -146
103 -153 111 -6 8 -14 47 -18 86 -10 101 -16 112 -58 115 -115 8 -278 75 -397
163 -137 100 -289 306 -342 460 l-15 45 37 22 c117 67 201 275 187 462 l-6 76
77 24 c113 34 266 115 442 231 85 56 172 106 194 111 31 7 54 4 120 -18 283
-93 528 -217 682 -344 40 -33 76 -60 82 -60 21 0 134 133 160 187 34 75 42
185 17 269 -35 123 -146 269 -295 387 -74 59 -75 61 -88 124 -47 234 -199 393
-437 459 -40 11 -117 18 -230 21 l-170 5 -58 63 c-96 106 -233 180 -396 215
-105 23 -279 32 -384 20z m4204 -11577 c1 -60 2 -121 3 -138 1 -30 1 -30 -65
-36 -130 -11 -198 -81 -260 -266 -17 -51 -38 -102 -47 -113 -17 -20 -17 -20
-70 5 -73 34 -183 107 -236 156 -98 90 -136 189 -136 358 0 56 3 101 7 101 3
0 36 -12 72 -26 81 -33 234 -43 362 -25 90 13 249 51 314 75 22 8 43 15 48 15
4 1 8 -47 8 -106z"/>
<path d="M38648 43723 c-61 -20 -128 -77 -128 -108 0 -35 36 -43 69 -16 49 40
104 61 163 61 73 0 111 33 76 68 -17 17 -124 14 -180 -5z"/>
<path d="M38671 43581 c-80 -75 -1 -206 103 -171 44 14 66 48 66 100 0 91
-102 133 -169 71z"/>
<path d="M39363 43599 c-30 -30 -7 -69 39 -69 40 0 102 -34 128 -70 17 -24 29
-30 49 -28 60 7 22 93 -63 143 -52 30 -135 43 -153 24z"/>
<path d="M39339 43421 c-38 -39 -40 -96 -4 -135 19 -21 33 -26 69 -26 37 0 48
5 70 31 78 92 -49 215 -135 130z"/>
<path d="M39120 43283 c0 -10 5 -54 12 -97 l12 -79 -30 -24 c-16 -13 -54 -38
-84 -56 -67 -39 -48 -46 54 -23 74 18 132 44 158 73 16 17 15 22 -25 90 -23
39 -50 85 -59 102 -19 34 -38 41 -38 14z"/>
<path d="M41670 41643 c-102 -151 -192 -280 -200 -288 -8 -7 -31 -15 -50 -17
l-34 -3 29 -19 c39 -26 90 -26 114 0 11 10 86 118 167 239 147 218 148 220
156 289 4 39 6 71 5 72 -1 1 -85 -121 -187 -273z"/>
<path d="M21405 41560 c-71 -4 -193 -15 -270 -25 -1654 -198 -3048 -1336
-3576 -2917 -91 -271 -144 -506 -196 -863 -16 -113 -18 -470 -23 -5755 -3
-3099 -6 -5621 -8 -5604 -6 82 -72 274 -93 274 -6 0 -8 4 -5 9 7 11 -49 101
-82 130 -15 13 -20 20 -12 16 8 -4 2 6 -15 23 -16 16 -34 27 -39 24 -5 -3 -6
0 -2 6 10 16 -164 149 -178 135 -3 -4 -6 -2 -6 4 0 6 -28 23 -62 37 -140 59
-140 59 -603 65 l-430 6 0 300 c0 165 -1 371 -2 458 l-3 157 -903 0 c-774 0
-911 -2 -962 -15 -205 -52 -384 -218 -453 -419 l-27 -81 -3 -1425 c-2 -972 1
-1447 8 -1494 36 -237 235 -450 475 -511 51 -13 189 -15 967 -15 l908 0 2
-3726 c2 -2049 0 -3728 -4 -3731 -11 -6 -9 -472 2 -625 13 -183 20 -254 31
-337 5 -41 8 -76 6 -78 -2 -2 -146 114 -320 257 -246 202 -317 266 -321 287
-3 16 -8 71 -11 123 -20 291 -68 596 -120 755 -57 174 -169 346 -293 450 -71
60 -216 135 -293 154 -133 31 -292 22 -435 -25 l-77 -25 -58 41 c-189 132
-419 159 -546 64 l-32 -24 -157 130 -157 129 -69 -61 c-37 -33 -70 -64 -73
-68 -3 -5 210 -188 312 -267 14 -11 -7 -40 -158 -220 -96 -115 -180 -216 -188
-226 -13 -16 -12 -21 11 -40 15 -12 189 -159 388 -327 199 -168 365 -306 370
-308 5 -2 93 97 196 220 103 123 191 223 195 223 5 0 255 -203 556 -451 l548
-451 12 -114 c59 -552 205 -835 479 -929 30 -11 128 -29 217 -41 89 -11 167
-22 173 -24 5 -2 16 -23 23 -46 51 -179 106 -337 114 -332 6 3 7 1 3 -5 -4 -6
14 -66 39 -132 l45 -121 0 -840 0 -839 -285 0 c-172 0 -305 -4 -337 -11 -121
-26 -241 -116 -294 -221 -23 -45 -60 -185 -51 -194 2 -2 566 -5 1255 -6 1147
-3 1251 -2 1247 13 -9 27 4 46 58 88 126 96 325 175 522 205 61 9 115 18 122
19 6 1 -51 52 -127 114 -108 88 -141 109 -151 100 -11 -10 -11 -9 -1 4 10 14
7 21 -20 42 -18 14 -57 48 -87 76 -29 28 -58 48 -64 44 -5 -3 -7 -2 -4 4 7 11
-36 56 -46 48 -4 -3 -5 -2 -2 2 5 6 -21 35 -182 202 -29 30 -53 57 -53 60 0 3
-15 22 -33 41 -18 19 -57 64 -87 100 -29 36 -57 64 -62 62 -4 -1 -7 1 -7 5 3
21 -3 24 -18 12 -16 -13 -17 -12 -4 4 12 15 11 20 -4 37 -10 11 -22 17 -26 14
-5 -3 -6 2 -3 10 4 9 -1 18 -10 22 -9 3 -16 10 -16 15 0 18 -43 68 -53 62 -6
-3 -7 -1 -3 5 4 6 -11 36 -33 65 -22 30 -62 88 -89 130 -27 42 -52 74 -54 71
-3 -2 -5 2 -5 8 0 18 -104 188 -114 188 -5 0 -8 3 -7 8 4 15 -35 82 -45 75 -5
-3 -7 -1 -3 5 7 11 -23 82 -34 82 -4 0 -7 6 -7 13 0 6 -17 41 -37 75 -20 35
-36 69 -36 76 0 7 -3 15 -6 19 -4 3 -28 55 -55 114 l-48 108 69 63 c39 35 70
68 70 72 0 5 -63 61 -140 125 l-140 116 -30 97 c-16 53 -30 102 -30 110 0 7
-3 11 -7 9 -11 -7 -13 16 -19 241 l-6 202 -38 0 c-39 0 -39 0 -49 53 -10 47
-27 151 -36 217 -2 14 -11 111 -20 215 -8 105 -20 226 -25 271 -6 51 -10 1602
-10 4285 l0 4206 118 6 c82 4 144 14 207 32 91 27 206 81 243 115 11 10 22 17
24 15 9 -9 129 116 122 127 -4 6 -3 8 3 5 14 -9 47 29 37 44 -4 7 -3 10 3 6
11 -7 68 73 75 103 2 8 8 20 15 27 16 18 61 157 72 223 6 37 9 -106 10 -432
l1 -488 -285 0 -285 0 0 -3685 0 -3685 2473 -1 c2724 -2 2527 -2 2534 4 5 6
-106 230 -119 238 -5 3 -9 10 -8 15 3 18 -43 103 -53 97 -6 -3 -7 -1 -3 5 3 6
-26 72 -65 146 l-71 136 -1611 0 c-1664 0 -1615 -1 -1732 34 -54 16 -150 82
-200 138 -69 76 -95 108 -90 108 3 0 -3 17 -14 38 -10 20 -26 69 -35 107 -15
63 -17 160 -14 1005 l3 935 23 60 c13 33 24 68 25 77 1 9 3 15 6 13 2 -3 16
15 31 38 63 99 182 190 299 230 65 22 74 22 733 25 l667 3 1 459 0 459 -1202
3 -1203 3 -65 28 c-36 16 -71 29 -78 29 -6 1 -10 3 -8 5 2 2 -21 27 -51 56
-48 45 -114 140 -119 172 -21 118 -24 205 -24 800 0 705 3 742 51 836 12 24
34 60 50 80 16 20 26 39 24 43 -3 3 -2 4 1 2 3 -2 31 13 62 35 31 22 85 48
120 59 63 20 98 20 1647 20 1548 0 1584 0 1647 -20 153 -47 269 -176 298 -330
7 -35 10 -309 10 -746 0 -573 -3 -700 -15 -740 -8 -26 -12 -51 -9 -56 3 -4 1
-8 -5 -8 -10 0 -27 -38 -23 -52 1 -5 -2 -8 -7 -8 -4 0 -21 -18 -36 -40 -16
-22 -45 -53 -66 -69 -22 -15 -37 -30 -34 -33 3 -2 -1 -5 -7 -6 -7 0 -40 -12
-73 -25 -33 -14 -88 -28 -122 -32 l-63 -7 -35 -58 c-19 -32 -35 -60 -35 -64 0
-3 -7 -14 -15 -23 -8 -10 -120 -187 -248 -393 l-234 -375 1341 -5 c1273 -5
1344 -6 1396 -24 180 -61 308 -183 371 -356 l24 -65 0 -970 0 -970 -29 -70
c-16 -38 -49 -96 -73 -128 -24 -32 -41 -62 -38 -67 3 -6 0 -8 -7 -5 -7 3 -29
-10 -48 -28 -92 -85 -229 -130 -398 -128 l-112 2 2 -321 3 -321 366 0 365 1
-4 -173 c-2 -94 -5 -173 -7 -175 -1 -1 -1366 -2 -3033 -2 l-3031 0 -7 -47
c-16 -107 16 -781 41 -863 3 -8 7 -38 10 -65 11 -95 68 -374 76 -369 5 3 6 -2
3 -10 -11 -28 106 -432 121 -419 4 5 5 3 1 -4 -12 -21 96 -305 190 -500 30
-62 54 -118 54 -124 0 -5 5 -7 12 -3 6 4 8 3 5 -3 -9 -15 168 -341 216 -398 4
-5 16 -26 27 -45 10 -19 23 -34 30 -32 6 1 9 -2 5 -8 -9 -14 54 -103 70 -100
4 1 10 -2 13 -6 4 -4 1 -4 -5 0 -18 10 -16 -5 3 -32 8 -12 20 -19 26 -16 7 4
8 2 4 -5 -10 -15 94 -155 269 -360 118 -140 412 -434 425 -426 6 4 9 2 8 -3
-3 -9 42 -52 155 -146 50 -43 59 -47 75 -35 15 13 16 12 4 -3 -12 -15 -1 -26
101 -102 140 -104 266 -189 415 -277 l113 -67 87 24 c658 181 1387 325 1980
390 l163 18 33 46 c38 51 231 307 249 330 7 8 26 33 42 55 17 22 61 80 98 128
37 48 65 92 62 98 -4 5 -1 8 6 7 6 -2 24 13 38 33 45 63 213 282 248 324 18
21 31 45 28 53 -2 7 -1 11 3 8 5 -3 25 16 45 42 20 26 128 164 239 308 455
585 465 597 588 662 89 47 160 71 462 156 53 15 59 20 77 59 10 23 30 80 44
127 15 47 38 121 52 165 14 44 25 85 25 91 0 6 -27 19 -61 29 -179 55 -363
224 -466 430 -35 69 -75 189 -98 289 -8 37 -18 73 -22 80 -4 6 -6 23 -4 38 1
14 -3 29 -10 34 -8 4 -10 3 -5 -4 4 -7 2 -12 -3 -12 -15 0 -14 18 3 27 9 6 15
45 19 140 14 296 110 580 268 794 73 99 73 99 103 36 109 -223 511 -546 920
-741 61 -29 135 -61 164 -72 38 -13 51 -22 48 -33 -53 -182 -20 -402 78 -519
15 -16 26 -34 26 -39 0 -35 -191 -242 -290 -314 -33 -24 -60 -48 -60 -54 -1
-5 -9 -98 -18 -206 l-18 -197 89 -11 88 -12 67 36 c37 19 96 60 132 90 104 89
168 99 420 68 74 -9 207 -17 295 -17 142 -1 168 2 230 22 85 28 144 61 210
117 94 79 135 194 135 380 0 231 -83 370 -322 538 -128 90 -172 136 -198 204
-35 94 -43 191 -31 389 15 257 -2 393 -68 538 -55 123 -172 268 -285 356 l-57
43 4 3061 c3 2260 7 3103 15 3221 37 484 86 969 138 1355 131 976 376 2026
675 2896 l59 172 -3 4443 c-2 4164 -4 4453 -20 4588 -91 745 -311 1354 -701
1941 -677 1018 -1756 1704 -2960 1880 -271 40 -630 56 -881 40z m-6950 -24055
c232 -59 433 -269 518 -540 35 -111 63 -248 81 -395 19 -150 39 -361 34 -365
-8 -6 -943 776 -941 787 1 7 9 33 18 58 36 96 3 261 -74 374 -17 24 -31 47
-31 49 0 4 91 30 145 41 50 10 196 5 250 -9z m8548 -1382 c4 -3 21 -8 39 -10
114 -12 178 -149 114 -244 -47 -69 -151 -91 -217 -46 -76 51 -98 129 -60 214
11 23 16 45 13 49 -4 4 -2 4 4 1 7 -4 23 3 38 14 14 11 26 17 26 13 0 -5 5 -3
12 4 14 14 22 15 31 5z m-7432 -575 l325 -268 38 -171 c20 -94 35 -173 32
-176 -3 -3 -70 4 -150 16 -108 15 -162 28 -211 50 -158 72 -271 260 -329 546
-23 112 -44 276 -36 273 4 -2 153 -123 331 -270z m1059 -2183 c18 -32 36 -52
42 -49 7 4 8 2 4 -5 -4 -6 22 -56 61 -117 89 -137 292 -414 304 -414 5 0 9 -5
9 -11 0 -14 116 -156 138 -168 9 -6 13 -11 8 -11 -6 0 3 -13 19 -30 15 -16 31
-28 34 -25 4 2 7 -5 7 -16 0 -18 -11 -19 -333 -19 l-333 0 0 460 c0 253 2 460
4 460 3 0 19 -25 36 -55z"/>
<path d="M45340 35420 c-77 -13 -152 -34 -325 -90 -171 -55 -309 -85 -457
-101 -57 -6 -122 -13 -145 -15 -24 -3 -58 -17 -82 -34 -105 -76 -125 -181 -72
-367 17 -61 31 -120 31 -132 0 -37 -40 -45 -230 -45 -168 -1 -177 0 -230 25
-31 14 -73 41 -93 58 l-37 33 51 -149 c78 -231 142 -325 240 -354 61 -19 138
5 349 105 196 94 288 130 568 222 332 109 541 224 703 385 129 129 163 199
138 288 -16 58 -96 141 -154 159 -53 17 -186 23 -255 12z"/>
<path d="M53383 21165 c-152 -42 -284 -138 -394 -286 l-50 -66 -107 -6 c-133
-8 -212 -27 -307 -73 -145 -71 -254 -182 -330 -339 -63 -127 -78 -203 -72
-345 15 -329 201 -703 595 -1195 12 -15 24 -26 26 -24 2 2 11 100 21 218 16
215 15 230 -17 231 -14 0 -100 95 -119 132 -87 171 1 347 176 348 68 0 115
-15 174 -54 l50 -34 8 36 c4 21 8 97 8 170 l0 133 35 -6 c63 -11 127 -35 145
-55 25 -27 37 -25 62 13 42 62 74 145 80 211 l6 66 52 0 c139 0 260 -48 394
-157 169 -137 248 -194 324 -234 165 -86 321 -122 492 -115 132 6 202 23 314
76 115 55 220 160 279 279 50 99 53 140 16 177 -22 23 -31 25 -72 20 -117 -14
-193 -18 -225 -12 l-35 7 48 48 c107 107 134 228 59 266 -38 20 -54 19 -119
-7 -138 -55 -419 -6 -575 102 -24 17 -115 89 -202 161 -206 170 -278 221 -392
278 -92 44 -99 46 -195 48 -65 2 -119 -2 -153 -12z"/>
<path d="M53542 19744 c-87 -43 -118 -115 -56 -130 18 -5 33 2 59 25 51 45 76
48 130 16 49 -28 80 -27 90 5 10 31 -11 56 -67 84 -65 33 -91 33 -156 0z"/>
<path d="M54264 19606 c-39 -17 -48 -30 -40 -62 7 -25 8 -25 72 -19 62 7 67 6
94 -20 16 -15 31 -38 34 -51 12 -46 86 -40 86 8 0 25 -33 89 -56 109 -55 48
-129 61 -190 35z"/>
<path d="M53588 19574 c-76 -41 -74 -159 2 -199 86 -45 180 22 167 119 -11 78
-97 119 -169 80z"/>
<path d="M54254 19419 c-29 -14 -54 -61 -54 -99 0 -23 10 -42 35 -67 33 -33
39 -35 81 -30 52 5 81 28 93 71 24 92 -68 167 -155 125z"/>
<path d="M8808 19385 c-132 -33 -247 -104 -303 -189 -45 -67 -66 -132 -70
-219 l-3 -69 -77 -33 c-137 -60 -197 -117 -231 -218 -21 -64 -14 -200 15 -307
24 -89 27 -187 6 -236 -8 -20 -31 -58 -50 -84 -93 -126 -100 -241 -23 -363 23
-37 28 -50 19 -61 -15 -18 -21 -168 -9 -242 5 -32 17 -67 26 -78 9 -11 12 -16
5 -12 -8 4 -7 -8 4 -39 13 -39 18 -45 37 -40 11 4 17 3 11 -2 -18 -14 -15 -31
6 -36 15 -4 19 -2 15 8 -2 7 3 19 12 27 15 12 16 11 4 -4 -9 -11 -9 -18 -3
-23 7 -4 7 -10 -2 -19 -9 -10 -14 -11 -19 -2 -6 8 -8 8 -8 -1 0 -17 90 -104
101 -97 5 3 9 1 9 -4 0 -17 61 -34 76 -22 8 7 14 7 18 1 3 -5 0 -11 -6 -14 -7
-2 2 -4 20 -5 17 0 32 3 32 8 0 4 17 4 38 -1 175 -41 322 79 377 308 23 97 17
272 -13 358 -19 56 -19 61 -4 69 34 18 78 75 124 157 49 88 91 136 145 163 38
19 152 22 218 5 42 -11 46 -10 77 16 80 68 187 92 264 60 19 -8 65 -44 101
-79 107 -106 162 -121 331 -91 136 24 181 13 224 -55 25 -39 42 -190 42 -367
0 -90 2 -163 4 -163 18 0 153 116 169 146 7 12 19 69 27 126 20 143 25 151 90
181 61 28 135 92 167 143 46 76 62 208 35 298 -34 113 -131 205 -254 243 -31
9 -60 19 -64 23 -4 3 0 28 8 55 11 36 14 77 11 146 -3 81 -9 106 -35 162 -40
87 -100 150 -177 187 -72 34 -188 55 -262 46 l-52 -6 -27 57 c-54 114 -144
173 -264 173 -31 0 -121 -16 -201 -36 -175 -43 -235 -43 -349 6 -142 59 -247
72 -362 45z"/>
<path d="M30125 19290 c-76 -8 -726 -138 -1740 -350 -132 -28 -442 -91 -690
-141 -492 -99 -599 -129 -764 -215 -434 -225 -735 -649 -807 -1137 -28 -187
-16 -382 39 -642 25 -115 165 -797 312 -1515 146 -718 272 -1322 278 -1342 9
-27 51 -74 159 -178 l148 -142 47 99 c109 228 294 561 461 828 184 296 451
666 545 758 123 119 318 228 540 302 149 50 253 70 408 81 l107 7 7 -32 c17
-77 -41 -141 -144 -161 -144 -28 -191 -53 -175 -94 11 -28 76 -50 164 -54 108
-5 227 15 395 69 120 38 137 40 215 36 125 -6 200 -44 200 -101 0 -24 -107
-122 -202 -186 -170 -114 -385 -198 -636 -247 -122 -24 -162 -27 -362 -28
-288 -2 -266 1 -309 -42 -60 -59 -80 -108 -271 -638 -196 -545 -288 -772 -403
-995 -109 -212 -212 -349 -307 -410 -48 -31 -55 -32 -118 -28 -43 4 -99 18
-157 40 -49 20 -91 35 -91 34 -1 0 76 -381 172 -846 95 -465 351 -1713 568
-2775 548 -2678 541 -2641 570 -2730 108 -328 359 -635 669 -819 250 -149 575
-230 854 -212 125 8 109 5 683 122 256 53 652 133 880 179 228 46 579 118 780
159 201 41 401 82 445 91 200 40 318 80 468 157 419 215 720 629 803 1103 21
118 23 376 5 475 -7 36 -487 2385 -1067 5220 -742 3625 -1066 5185 -1089 5258
-138 413 -444 749 -843 922 -228 99 -506 143 -747 120z"/>
<path d="M47628 19279 c-237 -28 -497 -130 -708 -278 -133 -94 -315 -289 -407
-436 -54 -85 -122 -236 -154 -335 -16 -52 -299 -1410 -628 -3018 -329 -1607
-601 -2925 -604 -2929 -3 -3 -28 0 -54 6 -26 6 -64 13 -83 15 -19 2 -43 7 -52
11 -10 4 -24 5 -32 2 -8 -3 -17 -1 -20 6 -2 7 -5 0 -5 -15 -1 -16 4 -28 10
-28 5 0 7 -4 4 -10 -3 -5 0 -10 7 -10 9 0 10 -3 2 -8 -12 -8 -14 -143 -2 -136
5 3 8 0 8 -6 0 -7 -6 -10 -14 -7 -17 7 -39 -16 -28 -28 4 -5 2 -5 -5 -1 -6 3
-14 2 -17 -3 -23 -37 -250 -163 -299 -165 -16 -1 -47 -36 -32 -36 4 0 -1 -7
-9 -16 -9 -8 -16 -20 -16 -27 0 -6 7 -2 15 9 14 18 14 17 4 -9 -7 -15 -14 -25
-17 -22 -10 9 -29 -40 -20 -51 5 -7 1 -17 -9 -25 -16 -13 -17 -12 -4 4 7 9 10
17 5 17 -12 0 -74 -107 -66 -115 10 -10 11 -36 1 -29 -5 3 -7 10 -4 15 12 18
-7 8 -26 -13 -20 -25 -25 -43 -9 -33 16 10 11 -1 -7 -16 -14 -12 -16 -12 -8 0
5 10 4 12 -4 7 -18 -12 -43 -66 -30 -66 8 0 8 -4 -1 -15 -7 -8 -18 -15 -24
-15 -6 0 -4 4 4 10 8 5 11 12 7 16 -11 12 -36 -16 -32 -37 2 -11 0 -17 -5 -14
-5 3 -18 -2 -29 -12 -17 -14 -18 -20 -8 -32 11 -14 10 -14 -7 -1 -17 13 -21
12 -42 -13 -13 -16 -24 -24 -24 -20 0 4 -4 3 -8 -3 -4 -5 -24 -20 -44 -33 -21
-12 -38 -25 -38 -27 0 -3 5 -2 10 1 6 3 10 4 10 2 0 -2 -17 -16 -38 -30 -47
-31 -97 -121 -76 -138 7 -6 19 -7 25 -3 8 4 9 3 5 -4 -4 -7 -18 -9 -32 -6 -20
5 -24 2 -24 -15 0 -12 1 -22 2 -23 1 -2 -4 -14 -12 -27 -7 -14 -14 -56 -16
-94 -1 -38 -5 -71 -8 -74 -2 -3 -2 -11 0 -18 3 -7 7 -28 9 -47 2 -18 4 -33 5
-33 1 0 3 -13 5 -29 6 -44 26 -87 39 -83 6 2 10 15 9 28 -1 13 1 18 3 11 3 -6
9 -10 14 -7 4 3 6 -4 3 -14 -3 -11 -11 -22 -18 -25 -12 -4 -11 -10 1 -35 9
-17 19 -31 24 -31 5 0 17 -3 27 -7 15 -6 16 -5 5 9 -10 13 -10 18 -1 24 7 4 9
3 5 -4 -3 -5 0 -12 6 -15 10 -3 10 -8 -1 -21 -11 -13 -16 -14 -22 -4 -4 7 -11
9 -14 6 -4 -4 2 -14 14 -24 11 -10 18 -21 15 -26 -3 -4 0 -8 5 -8 6 0 10 -6 9
-12 -2 -7 2 -12 9 -11 7 2 10 -3 7 -11 -3 -8 5 -34 17 -58 13 -23 22 -46 21
-50 -1 -5 2 -8 8 -8 5 0 10 5 10 12 0 6 3 8 6 5 4 -4 1 -13 -6 -22 -10 -12
-10 -15 3 -15 9 0 19 -4 22 -10 3 -6 -1 -7 -9 -4 -9 3 -16 1 -16 -5 0 -6 5
-11 11 -11 5 0 7 -4 4 -10 -3 -5 -1 -10 5 -10 7 0 10 -7 6 -15 -3 -8 -2 -15 2
-15 4 0 9 -11 10 -25 1 -14 9 -42 19 -63 9 -20 17 -41 17 -47 1 -5 8 -16 16
-23 8 -8 10 -11 3 -8 -6 4 -13 1 -15 -6 -5 -14 -46 -5 -73 17 -11 9 -14 13 -6
9 11 -5 13 -3 8 10 -4 10 -7 20 -7 22 0 3 -4 3 -8 0 -4 -2 -8 8 -7 22 0 15 -5
26 -11 25 -7 -1 -9 8 -6 23 3 17 -2 30 -14 40 -11 9 -14 13 -7 10 7 -4 9 1 6
14 -3 11 -10 20 -15 20 -5 0 -7 4 -3 9 3 5 0 13 -6 17 -8 5 -9 3 -4 -6 6 -9 4
-11 -4 -5 -9 5 -10 10 -2 18 7 7 0 29 -22 70 -53 99 -55 101 -59 84 -2 -12 -7
-10 -20 7 -13 18 -13 23 -3 23 8 0 11 -5 8 -10 -4 -6 -1 -7 6 -3 9 6 8 13 -6
29 -10 12 -22 25 -26 28 -5 3 -9 10 -9 15 0 5 -4 19 -9 32 -5 13 -9 26 -9 29
0 4 -8 15 -17 26 -10 11 -13 17 -6 13 9 -5 8 6 -3 36 -18 49 -26 266 -11 286
5 6 7 12 3 12 -3 0 -1 12 4 26 9 23 8 25 -7 20 -15 -5 -14 -3 2 9 11 9 20 21
21 28 0 7 8 29 17 50 9 21 18 45 19 55 2 9 9 23 16 30 7 8 10 18 7 23 -4 5 -1
9 6 9 8 0 8 4 -1 15 -12 15 -35 11 -25 -5 3 -4 -3 -7 -12 -6 -10 2 -16 7 -13
12 3 5 8 8 13 6 17 -5 5 16 -23 38 -16 14 -29 30 -30 36 0 18 -70 75 -82 68
-7 -4 -8 -2 -4 5 4 6 12 8 18 5 6 -4 8 -1 6 7 -3 8 -11 13 -17 11 -7 -1 -10 2
-6 8 7 12 -25 70 -39 70 -5 0 -6 3 -3 6 4 4 -5 28 -18 53 -26 47 -65 137 -64
147 0 3 -8 12 -18 21 -10 8 -11 11 -3 7 13 -7 13 -5 1 9 -7 9 -10 17 -6 17 4
0 2 7 -5 15 -7 8 -9 15 -5 15 4 0 2 6 -4 13 -6 8 -7 18 -3 22 4 5 2 5 -5 1 -6
-3 -16 2 -22 11 -6 10 -11 12 -11 6 0 -7 -5 -13 -11 -13 -8 0 -8 5 1 15 10 12
16 13 26 4 11 -9 14 -8 14 4 0 8 -7 17 -15 21 -8 3 -15 11 -15 18 0 9 3 9 11
-2 9 -12 10 -11 4 5 -4 11 -8 28 -10 37 -2 9 -8 26 -14 37 -6 11 -8 27 -5 36
5 11 -2 24 -21 39 -20 16 -23 23 -12 23 9 0 14 -4 11 -9 -3 -4 -1 -8 5 -8 5 0
9 14 9 30 -1 19 -6 30 -15 30 -21 0 -73 -29 -73 -40 0 -6 -9 -10 -21 -10 -11
0 -17 -4 -14 -10 3 -6 -1 -7 -9 -4 -9 4 -18 -1 -22 -10 -3 -9 -10 -14 -14 -11
-5 3 -13 -3 -19 -12 -5 -10 -13 -18 -18 -17 -26 3 -43 -10 -39 -31 4 -19 1
-22 -17 -17 -20 5 -20 6 -1 13 15 6 16 8 2 8 -9 1 -30 -20 -49 -49 -17 -27
-36 -47 -40 -44 -5 3 -9 7 -9 10 0 3 5 2 10 -1 9 -5 14 8 8 19 -2 2 6 12 17
22 28 26 10 14 -50 -31 -27 -21 -50 -45 -49 -54 1 -11 -8 -17 -28 -18 -33 -1
-61 -21 -54 -39 3 -7 -3 -18 -12 -26 -15 -11 -15 -11 -5 3 16 20 5 32 -13 16
-31 -28 -44 -37 -51 -37 -4 0 -80 -74 -168 -165 l-160 -166 -727 1 -727 0 -21
-22 c-11 -12 -20 -31 -20 -42 0 -10 66 -232 147 -493 123 -396 149 -473 165
-473 10 0 32 -13 49 -28 27 -24 32 -36 33 -75 1 -29 6 -47 13 -47 7 0 24 -10
38 -23 20 -17 28 -35 32 -71 4 -27 12 -50 20 -53 20 -8 43 -57 43 -93 0 -17
-7 -47 -15 -67 -14 -34 -14 -37 4 -50 47 -32 46 -109 -1 -160 l-20 -22 87
-283 c49 -156 105 -339 126 -407 21 -69 45 -132 54 -140 14 -14 85 -16 595
-19 474 -2 580 -5 580 -16 0 -7 -4 -26 -10 -42 -5 -16 -11 -43 -13 -59 -2 -17
-7 -36 -11 -43 -4 -7 -4 -12 0 -12 3 0 1 -7 -6 -15 -6 -8 -9 -19 -6 -24 4 -5
2 -12 -3 -15 -10 -7 -9 -25 3 -44 4 -7 4 -11 -1 -10 -4 2 -10 -1 -11 -7 -2 -5
-8 -16 -14 -22 -6 -7 -7 -13 -3 -13 4 0 2 -7 -5 -15 -11 -13 -11 -18 0 -28 7
-7 10 -7 7 -2 -3 6 4 17 16 24 18 11 20 11 10 0 -14 -14 -18 -33 -5 -25 4 2 9
-5 9 -17 2 -17 0 -19 -7 -7 -5 8 -10 11 -10 7 0 -4 -9 -3 -20 3 -11 6 -20 7
-20 2 0 -5 10 -14 23 -20 20 -10 20 -11 2 -9 -11 1 -20 -1 -20 -4 0 -3 -6 -13
-14 -22 -7 -10 -10 -17 -5 -17 5 0 3 -4 -5 -9 -8 -5 -14 -23 -15 -40 0 -17 -5
-31 -10 -31 -4 0 -6 -9 -3 -20 3 -11 0 -23 -5 -27 -7 -4 -8 -1 -3 7 5 8 4 11
-2 7 -17 -11 -22 -45 -7 -51 8 -3 14 -11 14 -18 0 -8 -3 -9 -8 -3 -12 17 -35
17 -29 1 3 -8 -1 -20 -8 -26 -8 -7 -12 -16 -9 -21 3 -5 0 -9 -6 -9 -8 0 -7 -6
1 -21 6 -12 7 -19 1 -15 -14 8 -35 -20 -26 -35 4 -7 3 -9 -3 -6 -9 6 -46 -63
-43 -79 1 -4 -4 -11 -12 -15 -10 -7 -10 -9 2 -9 9 -1 5 -6 -10 -15 -15 -9 -19
-14 -10 -15 13 0 13 -2 1 -9 -12 -8 -12 -12 -2 -25 8 -9 9 -16 3 -16 -6 0 -12
6 -15 13 -5 14 -24 0 -29 -23 -2 -8 -10 -21 -18 -28 -13 -12 -13 -13 0 -7 8 3
5 -2 -7 -11 -13 -9 -23 -23 -23 -30 0 -8 -5 -14 -11 -14 -5 0 -8 -4 -4 -9 3
-6 -3 -15 -12 -21 -15 -9 -11 -10 17 -5 28 5 24 1 -21 -18 -60 -25 -765 -393
-787 -410 -9 -7 -26 -1 -60 23 -26 18 -146 100 -267 181 -499 333 -867 525
-1070 558 -52 8 -69 6 -128 -14 -186 -64 -364 -227 -434 -397 -31 -77 -42
-200 -23 -279 29 -123 108 -256 206 -349 226 -213 717 -517 1458 -903 l280
-146 -100 -46 c-54 -26 -116 -54 -136 -62 -21 -8 -38 -19 -38 -23 0 -4 34 -81
76 -171 42 -89 122 -273 179 -408 160 -379 151 -362 177 -356 488 111 857 212
1177 320 130 43 136 44 160 28 73 -47 202 -152 335 -273 194 -176 189 -172
219 -161 44 17 61 56 157 356 56 175 102 259 226 413 85 107 114 136 161 161
31 17 65 31 75 31 35 0 268 -130 268 -150 0 -12 -90 -270 -101 -292 -6 -11 -8
-22 -6 -25 8 -8 176 37 257 69 227 89 377 237 477 470 19 46 38 86 42 90 3 4
56 -4 116 -16 61 -13 355 -74 655 -135 300 -61 855 -174 1234 -251 749 -153
836 -165 1031 -150 624 51 1145 462 1333 1051 17 53 53 206 81 340 243 1186
905 4417 1385 6759 321 1570 586 2864 590 2875 3 11 3 -9 0 -45 -12 -177 -16
-1001 -5 -1280 44 -1147 144 -1967 274 -2249 24 -52 62 -71 212 -106 169 -40
290 -50 580 -49 346 1 649 30 1099 105 98 16 180 28 181 27 12 -12 169 -1523
210 -2013 14 -170 28 -329 31 -352 4 -33 38 -88 176 -285 94 -133 224 -322
288 -418 l117 -175 -39 -82 c-209 -446 -232 -1679 -63 -3378 35 -347 33 -335
55 -335 18 0 19 -7 12 -167 -4 -93 -7 -222 -7 -288 l0 -120 75 -7 c201 -20
399 -80 547 -166 40 -23 118 -77 174 -120 56 -42 142 -107 191 -144 50 -38
108 -73 131 -79 62 -17 609 6 650 27 65 34 101 222 59 316 -33 76 -89 108
-298 168 -311 90 -485 242 -592 516 l-20 51 76 16 77 17 -4 447 c-6 759 24
1337 115 2233 19 190 46 455 60 590 16 155 27 342 31 510 10 474 -18 595 -248
1061 -241 488 -651 1190 -1191 2042 l-141 222 -59 245 c-94 388 -112 484 -153
788 -2 20 1 34 8 36 7 2 82 11 167 20 393 40 787 131 1286 298 l272 90 -38 72
c-63 116 -132 352 -172 586 -5 30 -10 55 -11 56 -1 0 -326 -25 -722 -57 -396
-31 -743 -59 -771 -61 l-51 -4 -7 190 c-21 591 -63 1085 -116 1350 -65 324
-261 736 -586 1234 -74 113 -98 142 -116 142 -92 2 -374 36 -538 66 -147 27
-370 83 -448 112 l-49 19 -117 -147 c-231 -294 -363 -518 -439 -745 l-34 -100
-6 116 c-20 383 -175 728 -447 999 -173 173 -369 296 -586 368 -89 30 -157 45
-619 138 -126 25 -369 75 -540 110 -1074 223 -1727 355 -1803 364 -102 12
-235 11 -344 -1z m-6048 -7977 c40 -30 62 -77 62 -132 -1 -84 -39 -129 -107
-130 -82 0 -138 63 -139 157 -2 110 100 167 184 105z m251 -32 c51 -28 65
-125 24 -165 -32 -33 -67 -31 -107 4 -29 26 -33 35 -33 81 0 42 4 55 24 71 26
21 62 24 92 9z m1742 -817 c-18 -7 -16 -23 3 -23 19 0 118 -41 122 -51 2 -4
13 -4 25 -1 19 5 20 3 9 -10 -10 -12 -10 -17 1 -27 8 -6 18 -7 22 -3 5 4 5 1
1 -5 -4 -7 -2 -13 4 -13 6 0 8 -4 5 -10 -3 -5 -2 -10 3 -10 6 0 13 -11 16 -25
4 -15 11 -23 18 -19 6 4 9 1 6 -7 -13 -36 65 -111 96 -92 5 4 6 1 2 -5 -6 -10
30 -28 47 -24 5 1 6 -2 3 -7 -4 -5 0 -14 9 -18 13 -8 12 -16 -9 -69 -31 -76
-56 -207 -56 -293 0 -37 -3 -70 -6 -73 -3 -3 -32 5 -65 18 -33 14 -64 22 -69
19 -6 -4 -10 -2 -10 3 0 17 -53 20 -94 5 -100 -36 -387 -17 -533 35 -146 51
-290 158 -333 247 -25 52 -19 70 30 94 28 13 36 27 55 84 24 74 41 92 98 101
57 9 102 -1 197 -44 106 -49 186 -70 266 -70 66 0 124 15 124 33 0 6 -16 62
-36 125 -19 63 -34 115 -32 116 2 2 19 7 38 13 36 11 65 15 43 6z m765 -1181
c12 -8 22 -24 22 -36 0 -15 3 -17 9 -8 7 11 9 10 15 -3 3 -9 11 -13 17 -9 8 4
9 3 5 -5 -6 -8 -12 -9 -20 -2 -19 16 -26 3 -26 -51 0 -32 4 -48 13 -48 9 0 8
-3 -2 -9 -9 -6 -10 -11 -2 -15 6 -4 11 -15 11 -24 0 -15 -2 -15 -10 -2 -8 12
-10 10 -10 -10 0 -14 -4 -56 -9 -95 -9 -71 -7 -90 10 -80 5 4 16 2 25 -3 14
-8 14 -11 -7 -26 -27 -18 -39 -20 -39 -6 0 6 3 9 8 9 18 -3 32 2 32 11 0 5
-10 8 -22 7 -15 -3 -25 -15 -34 -47 -7 -24 -11 -47 -8 -52 3 -5 -6 -22 -20
-39 -30 -36 -34 -61 -8 -53 13 5 14 4 3 -4 -11 -8 -10 -12 5 -21 11 -6 15 -11
10 -11 -5 0 -17 7 -27 16 -17 15 -45 11 -35 -5 3 -4 -8 -18 -24 -30 -17 -12
-30 -27 -30 -34 0 -8 4 -7 10 3 7 11 10 11 10 2 0 -7 5 -10 12 -6 6 4 8 3 5
-2 -3 -5 -19 -11 -35 -12 -30 -2 -116 -45 -108 -53 2 -2 -5 -4 -17 -5 -12 0
-52 -2 -88 -4 -36 -2 -71 0 -78 4 -7 4 -19 5 -27 2 -8 -3 -13 -2 -10 2 3 5
-10 15 -29 24 -20 9 -32 11 -29 4 4 -6 -4 1 -17 16 -13 15 -31 28 -39 30 -8 2
-29 21 -46 43 -17 22 -44 52 -60 66 -32 29 -64 66 -64 75 0 3 -14 26 -31 50
-17 25 -28 52 -25 60 7 19 66 19 66 0 0 -9 7 -13 18 -11 11 2 19 -3 19 -10 0
-8 -4 -12 -9 -9 -4 3 -8 0 -8 -5 0 -6 3 -11 8 -11 4 0 12 -10 17 -22 6 -13 17
-22 24 -20 7 1 9 -2 6 -8 -10 -16 124 -150 143 -142 9 3 13 1 9 -5 -7 -10 34
-43 57 -47 6 -1 16 -5 21 -8 6 -4 17 -2 25 4 12 8 11 8 -5 3 -15 -5 -17 -3 -8
6 14 14 34 3 27 -15 -4 -10 7 -13 41 -13 25 0 48 4 51 9 3 4 9 6 14 3 5 -3 24
3 42 13 23 13 33 26 33 43 0 33 12 48 35 46 19 -1 19 -2 -2 -24 -12 -13 -17
-23 -11 -23 13 0 75 75 97 118 10 19 15 40 12 48 -3 8 -2 12 4 9 9 -5 24 49
25 90 0 11 4 23 10 27 6 5 5 12 -2 19 -9 9 -10 16 -2 26 9 10 8 17 -2 30 -8 9
-9 14 -3 10 18 -10 21 8 22 127 1 92 -2 112 -16 123 -9 8 -11 11 -3 7 10 -5
13 -3 8 9 -7 18 11 14 51 -11z m-1700 -2596 c114 -95 129 -111 114 -121 -44
-30 -365 -207 -520 -288 l-173 -89 88 129 c277 405 339 491 349 485 6 -4 70
-56 142 -116z"/>
<path d="M53998 19151 c-11 -92 -22 -151 -33 -167 -20 -31 -88 -63 -134 -64
-48 0 -35 -8 33 -21 63 -11 142 5 182 38 l22 18 -23 158 c-13 86 -25 162 -27
168 -2 7 -11 -52 -20 -130z"/>
<path d="M9345 17790 c-100 -48 -154 -138 -104 -174 28 -19 43 -12 99 46 46
47 47 48 108 48 50 0 63 3 72 19 14 28 13 38 -10 61 -27 27 -110 27 -165 0z"/>
<path d="M10094 17787 c-55 -27 -70 -48 -54 -78 13 -23 48 -25 76 -4 34 26 80
19 124 -21 41 -37 65 -41 84 -11 15 24 -8 64 -60 100 -57 40 -107 44 -170 14z"/>
<path d="M10125 17626 c-39 -17 -55 -37 -61 -78 -5 -27 -1 -41 20 -65 31 -36
69 -46 113 -28 37 16 53 41 53 85 0 44 -16 69 -55 86 -40 16 -33 16 -70 0z"/>
<path d="M9399 17601 c-44 -44 -43 -102 2 -143 84 -78 205 12 157 117 -27 59
-112 73 -159 26z"/>
<path d="M9837 17369 c25 -63 48 -132 51 -153 6 -49 -16 -92 -63 -125 -43 -29
-39 -37 12 -21 58 18 107 56 132 100 l22 40 -23 33 c-34 49 -160 221 -169 231
-4 4 13 -43 38 -105z"/>
<path d="M23315 16936 c-89 -28 -126 -70 -96 -107 l19 -23 42 29 c36 25 54 30
104 31 34 1 67 2 74 3 17 1 15 58 -2 64 -35 14 -105 15 -141 3z"/>
<path d="M23304 16820 c-55 -23 -71 -99 -30 -147 53 -61 156 -21 156 62 0 63
-69 110 -126 85z"/>
<path d="M23990 16795 c-15 -18 -7 -43 17 -51 72 -24 143 -67 167 -104 30 -45
70 -55 81 -20 26 81 -212 238 -265 175z"/>
<path d="M8805 16756 c-4 -21 -56 -639 -55 -663 0 -9 -18 -13 -57 -13 -74 0
-305 -25 -426 -45 -147 -25 -496 -95 -523 -105 -37 -14 -131 -81 -203 -144
-51 -44 -72 -56 -98 -56 -18 0 -33 -4 -33 -10 0 -5 -5 -10 -11 -10 -5 0 -7 5
-4 10 5 8 -157 10 -522 8 -525 -3 -528 -3 -593 -26 -137 -50 -256 -155 -315
-279 -57 -119 -55 -41 -55 -1770 l0 -1593 1623 0 c892 0 2882 -3 4423 -6
l2801 -7 12 44 c7 24 13 51 14 59 2 8 6 21 10 28 5 6 5 12 1 12 -3 0 -1 7 6
15 7 8 10 15 7 15 -4 0 2 20 13 45 13 30 15 45 8 45 -7 0 -3 7 8 16 10 8 14
13 7 9 -8 -4 -8 3 2 22 9 17 11 31 5 38 -6 8 -4 18 6 31 14 18 15 18 4 -3 -7
-16 -7 -23 0 -23 5 0 11 8 12 18 2 32 3 37 10 48 19 30 27 64 16 70 -6 4 -8 3
-5 -2 3 -6 2 -16 -3 -23 -5 -9 -7 -3 -7 17 1 17 4 29 7 27 11 -7 29 11 33 30
1 11 6 26 10 33 5 7 3 12 -5 12 -9 1 -8 5 4 13 9 7 20 26 23 43 4 16 14 48 22
71 8 23 12 46 8 52 -3 6 -2 11 3 11 15 0 29 51 26 90 -2 24 -1 29 4 16 6 -14
12 -5 25 40 9 33 16 73 16 89 -2 41 4 74 11 70 3 -2 12 1 20 6 13 8 13 10 0
19 -11 7 -11 10 -2 10 18 0 43 65 38 95 -3 14 -1 23 4 20 7 -5 29 44 34 78 1
7 5 17 9 24 9 14 -2 45 -14 37 -18 -11 -8 5 20 34 24 24 29 36 26 63 -3 21 -1
29 4 21 7 -11 10 -10 15 3 9 24 8 27 -6 19 -7 -4 -5 2 5 14 11 11 16 26 12 31
-3 6 -1 11 5 11 7 0 10 7 6 15 -3 8 -1 15 3 15 5 0 8 11 7 25 -2 13 1 22 5 19
13 -8 28 60 15 68 -7 5 -5 8 4 8 14 0 18 12 22 58 1 6 5 12 10 12 5 0 7 4 3 9
-3 5 -1 12 5 16 6 4 8 10 5 15 -3 5 -1 11 4 14 5 3 7 16 3 28 -4 16 -2 19 8
13 10 -6 12 -3 8 13 -4 12 -2 22 4 22 5 0 7 4 3 9 -3 5 -1 12 5 16 6 4 8 10 5
15 -3 5 -1 11 5 15 15 9 12 27 -2 20 -7 -4 -6 -1 3 7 17 14 42 78 34 86 -3 3
1 12 8 20 10 13 9 14 -3 7 -12 -7 -13 -6 -3 6 27 33 -9 151 -40 132 -6 -3 -7
-1 -4 4 4 6 0 16 -8 23 -8 7 -15 9 -15 5 0 -4 -7 -2 -16 6 -13 10 -17 10 -25
-2 -6 -10 -9 -11 -9 -1 0 16 136 15 -1619 19 -1363 3 -1434 3 -1447 -14 -13
-17 -14 -17 -8 0 6 16 -4 17 -113 17 -209 0 -224 -12 -294 -235 -28 -88 -60
-189 -71 -225 l-21 -65 -15 65 c-135 627 -305 1163 -472 1489 -89 175 -153
266 -264 377 -151 151 -181 163 -511 213 -143 22 -359 54 -480 71 -121 17
-234 33 -251 36 -38 5 -37 3 -55 211 -7 78 -16 140 -20 137 -4 -2 -57 -5 -116
-5 -227 0 -448 98 -651 289 -63 59 -73 66 -77 48z m1403 -2258 c24 -24 12 -57
-43 -120 -62 -70 -73 -97 -56 -134 35 -78 210 -76 447 7 221 76 322 51 392
-100 20 -43 24 -63 19 -107 -16 -152 -185 -325 -377 -385 -172 -54 -622 -67
-817 -24 -22 5 -23 11 -23 84 0 127 -28 258 -83 391 -5 11 18 29 87 68 79 44
96 57 101 82 10 45 80 144 122 173 49 34 107 57 163 67 25 4 47 8 51 9 3 0 10
-4 17 -11z m592 -1098 c66 -382 99 -490 205 -668 61 -104 123 -188 205 -276
l57 -61 -19 -62 -19 -63 -219 0 c-121 0 -220 3 -220 8 0 4 -7 124 -15 267 -34
597 -47 1198 -25 1120 5 -16 27 -136 50 -265z m2895 -75 c18 -9 42 -25 54 -36
12 -11 26 -17 33 -13 6 4 8 3 5 -3 -4 -6 3 -28 14 -49 17 -34 19 -51 15 -129
-3 -49 -6 -101 -7 -115 -1 -14 -4 -19 -6 -12 -5 14 -47 -42 -48 -63 0 -5 -7
-10 -15 -11 -8 0 -35 -10 -60 -22 -56 -27 -148 -30 -188 -5 -41 26 -92 75 -92
91 0 7 -5 10 -12 6 -6 -4 -8 -3 -5 3 4 6 2 24 -3 39 -13 38 -21 171 -9 153 6
-10 9 -8 9 10 0 13 16 45 35 71 19 26 32 50 29 53 -3 3 3 4 13 4 10 -1 17 3
16 10 -2 7 4 10 12 7 8 -4 15 -1 15 4 0 24 148 29 195 7z"/>
<path d="M23971 16656 c-31 -17 -50 -53 -51 -94 0 -25 8 -41 31 -63 42 -39 87
-39 131 0 86 77 -10 213 -111 157z"/>
<path d="M23403 16435 c-43 -42 -73 -81 -73 -93 0 -11 19 -37 44 -59 47 -41
153 -100 163 -90 3 4 -15 29 -41 58 -62 69 -65 85 -27 169 17 39 31 75 31 80
0 23 -29 4 -97 -65z"/>
<path d="M57152 16063 c-18 -16 -117 -127 -462 -518 -52 -59 -97 -112 -99
-118 -6 -17 87 1 146 28 30 13 98 58 151 98 188 142 278 182 321 143 18 -16
21 -16 52 3 47 29 97 28 104 -1 5 -21 -8 -78 -31 -133 -4 -11 83 80 194 202
111 122 202 228 202 235 0 7 -9 28 -20 46 l-20 32 -259 0 c-232 0 -261 -2
-279 -17z"/>
<path d="M44830 15229 c-19 -10 -64 -28 -99 -39 -57 -18 -90 -20 -351 -20
-498 0 -742 -53 -860 -188 -44 -49 -56 -91 -46 -160 l6 -47 -93 -90 c-112
-108 -152 -180 -167 -298 -13 -108 9 -279 51 -385 10 -25 14 -18 40 83 31 118
74 219 116 273 27 35 78 72 102 72 7 0 38 -25 68 -55 104 -104 166 -106 508
-20 116 29 237 56 271 60 70 8 171 -8 224 -35 44 -22 107 -90 156 -165 36 -58
133 -246 177 -347 l26 -58 50 26 c74 39 162 43 223 11 l47 -24 11 51 c44 203
52 440 20 573 -55 229 -222 426 -454 534 l-63 29 33 35 c37 40 60 124 47 173
l-8 30 -35 -19z"/>
<path d="M43382 14013 c-39 -19 -92 -77 -92 -101 0 -22 19 -42 40 -42 9 0 31
16 50 35 26 27 42 35 70 35 20 0 45 -7 56 -15 30 -23 63 -19 76 10 14 31 -1
51 -57 76 -49 23 -100 24 -143 2z"/>
<path d="M44160 13927 c-30 -15 -38 -58 -15 -81 12 -12 27 -14 54 -10 50 8 99
-15 140 -67 34 -42 60 -49 85 -23 28 28 19 62 -29 110 -75 75 -170 104 -235
71z"/>
<path d="M25256 13859 c-9 -22 -13 -45 -10 -51 4 -6 2 -8 -3 -5 -6 4 -14 0
-17 -9 -8 -21 -8 -26 2 -20 4 2 8 -5 9 -17 0 -12 -1 -16 -4 -9 -3 6 -8 12 -13
12 -11 0 -31 -60 -24 -71 3 -5 1 -9 -4 -9 -5 0 -14 -12 -21 -26 -9 -20 -9 -30
0 -40 9 -11 9 -13 -2 -9 -11 4 -20 -11 -34 -52 -11 -32 -19 -61 -17 -65 1 -5
-2 -8 -7 -8 -5 0 -11 -9 -14 -20 -3 -13 -1 -18 5 -13 6 3 8 1 4 -5 -3 -5 0
-13 6 -16 7 -3 4 -4 -8 -1 -17 4 -23 -1 -31 -30 -8 -26 -8 -34 0 -29 7 3 4 -1
-6 -9 -11 -9 -15 -21 -10 -32 4 -13 3 -16 -5 -11 -16 10 -15 -7 1 -23 10 -10
8 -11 -6 -5 -10 3 -17 3 -16 -2 1 -5 -3 -22 -10 -39 -9 -21 -10 -38 -3 -57 8
-21 7 -25 -4 -21 -8 3 -11 9 -8 14 3 5 0 9 -6 9 -6 0 -10 -6 -9 -12 2 -14 -6
-42 -22 -70 -7 -14 -5 -16 9 -12 12 4 10 0 -5 -12 -23 -17 -33 -51 -11 -38 7
4 8 3 4 -5 -4 -6 -11 -9 -15 -7 -10 6 -81 -222 -85 -276 -2 -23 -7 -67 -11
-95 -6 -40 -4 -53 5 -53 10 0 10 -3 1 -14 -16 -19 -6 -357 10 -367 8 -4 7 -8
-2 -12 -8 -3 -9 -6 -4 -6 6 -1 9 -20 8 -43 0 -23 1 -57 4 -75 l6 -33 703 0
c678 0 705 -1 754 -20 l50 -20 0 583 0 583 -32 19 c-135 78 -397 245 -766 490
-79 52 -106 65 -115 56 -9 -9 -8 -14 3 -21 13 -9 13 -10 0 -10 -13 0 -13 -1 0
-11 12 -8 10 -9 -9 -4 -15 5 -21 3 -17 -3 3 -6 2 -13 -3 -16 -5 -4 -8 2 -7 11
2 9 8 19 14 21 6 2 8 10 5 18 -3 7 -10 11 -16 7 -6 -3 -7 -1 -3 6 4 6 12 9 17
6 5 -4 9 -2 9 2 0 14 -23 33 -39 33 -14 0 -14 -2 -1 -11 12 -9 12 -10 -3 -5
-10 3 -22 6 -25 6 -4 0 0 4 8 10 8 5 12 10 10 12 -20 14 -127 86 -136 91 -7 4
-18 -9 -28 -34z m227 -1780 c-5 -5 -6 355 -3 799 l5 807 3 -799 c1 -440 -1
-803 -5 -807z"/>
<path d="M43388 13814 c-34 -18 -48 -43 -48 -87 0 -82 110 -120 164 -56 41 48
29 117 -25 145 -35 18 -57 17 -91 -2z"/>
<path d="M44091 13739 c-50 -47 -50 -111 1 -154 34 -28 75 -32 117 -10 58 29
66 124 14 165 -35 27 -102 27 -132 -1z"/>
<path d="M43583 13449 c-106 -146 -106 -148 -29 -216 40 -35 121 -72 132 -60
3 2 -11 15 -31 28 -45 31 -69 80 -61 128 3 20 24 83 46 140 23 57 39 105 38
106 -2 1 -45 -56 -95 -126z"/>
<path d="M43265 13446 c-4 -21 -5 -106 -2 -190 4 -118 11 -173 31 -251 80
-307 270 -524 517 -591 96 -26 284 -24 427 4 129 26 308 82 367 115 l40 23 42
189 c37 167 68 283 90 342 4 11 -11 2 -36 -20 -49 -44 -113 -76 -153 -77 -21
0 -32 9 -52 43 -75 127 -215 183 -396 157 -41 -6 -160 -31 -265 -56 l-190 -47
-91 17 c-107 20 -139 15 -161 -27 l-16 -31 -18 37 c-31 59 -69 173 -99 292
-27 105 -28 108 -35 71z"/>
<path d="M45072 13362 c-38 -3 -44 -7 -62 -42 -19 -38 -56 -68 -67 -56 -13 13
-92 -129 -122 -220 -32 -94 -115 -443 -108 -450 8 -9 107 65 168 126 157 155
247 376 237 580 l-3 65 -43 -3z"/>
<path d="M22425 12616 c-217 -216 -448 -422 -569 -507 l-69 -49 470 0 470 0 6
83 c15 184 8 244 -65 547 l-33 135 -210 -209z"/>
<path d="M43895 12300 c-11 -4 -23 -6 -27 -4 -4 3 -9 0 -13 -5 -3 -6 -12 -8
-20 -4 -9 3 -21 0 -29 -6 -7 -6 -16 -8 -19 -5 -3 4 -14 3 -24 -1 -10 -5 -21
-9 -25 -10 -5 -2 -10 -4 -13 -5 -8 -4 -24 -7 -41 -9 -11 -1 -14 -7 -9 -18 5
-15 4 -16 -6 -5 -16 15 -33 16 -23 0 5 -7 3 -8 -5 -4 -7 5 -21 0 -32 -10 -15
-14 -17 -20 -6 -32 9 -12 9 -14 0 -8 -10 5 -11 -1 -7 -26 3 -18 8 -40 11 -48
3 -8 7 -24 8 -35 1 -11 5 -34 10 -50 15 -54 16 -60 17 -72 1 -7 6 -13 11 -13
5 0 6 8 2 18 -5 13 -4 14 6 5 9 -9 9 -16 1 -25 -11 -14 6 -88 20 -88 5 0 8
-11 8 -24 0 -14 5 -28 10 -31 6 -3 10 -15 10 -25 0 -10 5 -22 12 -26 7 -5 8
-3 3 6 -5 9 -4 11 4 6 6 -4 8 -12 5 -18 -8 -12 25 -88 38 -88 5 0 6 6 3 13 -4
6 0 3 9 -7 13 -16 18 -17 33 -5 17 13 17 12 0 -8 -18 -20 -18 -22 0 -32 10 -6
12 -11 6 -11 -7 0 -18 9 -25 20 -20 32 -30 23 -13 -10 9 -18 21 -28 27 -24 6
4 8 3 4 -4 -3 -6 -2 -13 4 -17 6 -4 8 -11 5 -16 -4 -5 1 -12 9 -15 9 -3 16
-12 16 -20 0 -8 5 -14 10 -14 6 0 10 -4 10 -10 0 -5 7 -18 16 -27 8 -10 23
-29 33 -42 14 -19 20 -21 26 -11 6 9 4 11 -5 5 -9 -5 -11 -4 -6 4 4 6 12 9 17
5 5 -3 7 -9 5 -13 -3 -4 -1 -13 5 -21 7 -12 9 -11 9 5 0 13 3 16 8 8 10 -15
66 -22 70 -8 2 5 -2 11 -9 14 -8 2 -9 -1 -3 -10 7 -12 5 -12 -9 -1 -9 8 -22
10 -29 6 -9 -6 -9 -3 1 10 8 9 21 14 29 11 11 -4 12 -2 4 8 -9 10 -6 13 12 13
12 0 23 -6 23 -13 0 -6 -4 -10 -9 -7 -4 3 -8 0 -8 -5 0 -17 37 -13 44 4 3 8
11 14 18 13 7 -2 12 3 11 10 -2 6 4 12 13 12 8 0 12 5 9 10 -3 6 0 10 8 10 8
0 38 27 68 59 71 78 79 88 72 95 -4 3 -2 6 4 6 6 0 18 12 28 26 12 18 13 24 4
19 -8 -4 -3 3 11 14 15 13 20 21 11 21 -10 0 -8 5 6 18 29 25 47 62 31 62 -8
0 -9 3 -3 8 13 9 18 32 7 32 -4 0 -13 -4 -20 -10 -7 -5 -6 -2 2 7 12 13 18 14
29 5 11 -9 16 -7 25 14 15 31 15 47 2 39 -6 -4 -7 -11 -4 -17 4 -7 2 -8 -5 -4
-6 4 -9 12 -5 17 3 6 -5 7 -22 3 -15 -4 -36 -8 -48 -8 -11 -1 -20 -8 -18 -15
1 -7 -2 -10 -7 -6 -6 3 -8 12 -4 20 4 11 -3 15 -28 15 -19 1 -59 9 -89 20 -30
10 -58 16 -62 14 -5 -3 -11 1 -14 10 -3 8 -12 17 -19 20 -10 3 -12 0 -8 -11 4
-11 2 -14 -5 -9 -7 4 -12 13 -12 19 -1 7 -21 28 -46 47 -25 19 -62 55 -81 80
-33 43 -35 47 -30 112 3 42 1 71 -7 79 -8 9 -8 10 2 5 7 -4 12 -1 12 8 0 20
-11 25 -35 16z"/>
<path d="M26359 11500 c-45 -26 -136 -30 -744 -30 -597 -1 -636 -2 -630 -18 4
-9 8 -26 9 -37 3 -22 35 -124 44 -140 3 -5 7 -20 8 -33 4 -36 11 -37 19 -3 7
35 20 47 31 30 4 -7 3 -9 -3 -6 -6 4 -15 -11 -21 -35 -8 -32 -8 -46 3 -61 7
-11 11 -26 8 -33 -3 -8 0 -14 6 -14 6 0 8 -7 4 -17 -4 -10 -2 -14 4 -10 7 5 9
-1 5 -15 -3 -12 -1 -19 5 -15 5 3 9 -4 8 -16 -1 -12 5 -30 13 -39 8 -10 10
-18 4 -18 -10 0 1 -61 16 -85 7 -11 8 -17 10 -53 1 -13 6 -21 11 -18 5 3 11
-1 15 -9 3 -8 1 -15 -4 -15 -6 0 -10 -5 -10 -11 0 -5 4 -8 9 -5 4 3 7 -7 5
-22 -1 -14 3 -33 9 -40 6 -8 10 -27 9 -43 -2 -16 0 -34 4 -40 4 -7 9 -26 10
-43 2 -17 6 -40 8 -51 3 -11 5 -24 5 -28 1 -5 6 -5 12 -1 8 5 8 1 0 -14 -13
-24 -11 -217 2 -199 6 8 7 5 3 -6 -3 -10 -6 -21 -6 -23 0 -3 -4 -3 -9 1 -6 3
-10 -3 -9 -12 0 -18 -31 -129 -47 -167 -7 -16 -5 -18 8 -13 9 3 17 2 17 -3 0
-6 -9 -10 -20 -10 -11 0 -20 -3 -21 -7 -2 -27 -9 -47 -16 -52 -5 -3 -20 -24
-33 -46 -13 -22 -37 -57 -53 -78 -25 -32 -28 -41 -16 -49 11 -8 11 -9 -2 -5
-10 3 -26 -5 -40 -20 -13 -15 -19 -23 -12 -19 6 3 15 2 18 -4 4 -6 3 -10 -2
-9 -20 3 -33 -4 -93 -56 l-64 -55 -665 0 -666 0 -40 77 c-55 106 -185 298
-282 418 -319 393 -768 731 -1262 950 -184 81 -443 163 -575 181 -49 7 -53 24
-5 24 16 0 29 4 29 8 0 5 15 7 33 5 25 -3 28 -1 12 5 -11 5 -86 12 -167 16
-81 3 -180 10 -220 15 -40 6 -93 12 -118 15 -67 7 -170 24 -316 51 l-131 25
-994 -2 -994 -3 112 -68 c63 -38 118 -65 125 -61 6 4 8 3 5 -3 -10 -17 315
-189 335 -177 6 4 8 3 5 -3 -7 -11 55 -41 291 -142 79 -34 147 -59 153 -56 5
4 9 2 9 -2 0 -13 128 -55 141 -47 8 4 9 3 5 -4 -9 -16 376 -136 586 -182 l58
-13 -58 -66 c-31 -36 -93 -107 -137 -156 -73 -83 -330 -376 -465 -530 -670
-766 -1226 -1352 -1380 -1454 -160 -107 -482 -237 -692 -281 -117 -24 -289
-39 -378 -32 -57 4 -74 11 -135 52 -132 89 -275 150 -352 150 -45 0 -93 -26
-93 -49 0 -34 88 -194 157 -286 72 -97 313 -344 378 -387 l40 -27 120 25 c161
34 388 43 495 20 74 -16 180 -60 180 -75 0 -5 -57 -61 -127 -126 -71 -65 -165
-153 -210 -196 l-82 -77 38 -43 38 -43 257 167 c217 141 271 171 349 197 165
56 273 135 321 239 16 36 21 64 20 131 0 81 -4 96 -49 202 -6 14 14 31 99 86
58 38 102 73 98 77 -4 5 -2 5 5 2 6 -4 40 9 75 29 96 55 331 162 543 249 568
231 741 315 992 482 l111 74 7 52 c35 279 116 587 206 782 126 274 320 529
568 747 146 129 199 158 286 158 97 -1 172 -46 216 -132 21 -41 90 -382 114
-562 8 -64 15 -184 15 -267 l0 -149 423 -1 c232 0 410 -4 396 -9 -15 -4 -43
-25 -64 -46 l-38 -39 34 40 33 40 -33 3 c-18 2 -40 -3 -49 -10 -11 -9 -14 -10
-8 0 6 9 -66 12 -343 12 -274 0 -351 -3 -352 -12 -1 -7 -2 -23 -3 -35 0 -12
-4 -25 -8 -29 -12 -12 -9 -44 4 -44 7 0 6 -5 -4 -12 -9 -7 -18 -25 -22 -40 -5
-23 -4 -26 11 -21 15 5 14 3 -3 -13 -12 -10 -29 -48 -39 -84 -10 -36 -26 -83
-36 -105 -27 -63 -33 -89 -19 -80 9 5 11 4 6 -4 -4 -6 -12 -9 -17 -6 -11 7
-32 -43 -23 -56 3 -5 0 -8 -6 -7 -6 2 -23 -26 -39 -62 -27 -63 -31 -97 -9 -84
7 4 8 2 4 -5 -6 -9 -11 -9 -21 -1 -10 8 -16 3 -26 -22 -7 -18 -15 -37 -17 -42
-3 -5 0 -6 7 -2 7 5 9 1 5 -8 -3 -9 -10 -14 -14 -11 -13 8 -30 -26 -179 -355
-188 -414 -386 -877 -529 -1235 -99 -248 -116 -300 -120 -359 -4 -56 -8 -69
-23 -73 -23 -6 -52 -93 -115 -345 -55 -222 -101 -353 -170 -492 -125 -251
-341 -517 -446 -547 -73 -21 -260 1 -314 36 l-23 15 173 262 c238 362 282 446
352 672 36 117 84 329 84 371 l0 25 -667 0 c-393 0 -705 -4 -758 -10 -471 -54
-855 -259 -1114 -594 -239 -309 -360 -477 -377 -521 -29 -75 -25 -165 9 -240
36 -78 78 -121 152 -156 l60 -29 832 0 833 0 -10 -26 c-22 -56 -14 -72 42 -89
90 -26 225 -38 368 -31 134 7 309 28 385 47 118 30 116 29 131 65 l14 34 264
0 c228 0 265 -2 270 -15 5 -13 16 -14 58 -9 29 4 57 10 63 15 5 5 1024 9 2350
9 l2340 0 65 22 c112 37 120 40 146 60 13 11 33 37 44 59 20 38 20 66 20 1724
l0 1685 93 0 c50 0 112 5 136 11 112 25 229 113 284 213 60 108 57 47 57 1283
0 623 -3 1133 -7 1133 -5 0 -15 -5 -24 -10z m-872 -1263 c-1 -221 -2 -40 -2
403 0 443 1 624 2 403 2 -222 2 -584 0 -806z m-1357 -2367 l0 -1000 -675 0
-675 0 0 1000 0 1000 675 0 675 0 0 -1000z m1318 75 c2 -506 0 -1116 -4 -1355
l-6 -434 -76 84 c-134 151 -275 285 -357 339 -103 68 -296 161 -407 197 l-88
28 0 1033 0 1033 468 -2 467 -3 3 -920z"/>
<path d="M5910 10585 c0 -611 3 -900 11 -937 22 -102 72 -194 151 -272 115
-114 211 -152 411 -163 l117 -6 0 -1897 0 -1896 28 -55 c39 -78 92 -112 183
-117 115 -7 198 46 235 150 12 35 14 309 14 1929 l0 1889 571 0 571 0 -2
-1902 c-2 -1454 0 -1910 9 -1933 7 -16 27 -45 44 -64 109 -114 315 -86 378 53
18 39 19 114 19 1943 l0 1902 778 4 c427 2 1008 5 1290 8 506 4 513 4 517 -16
3 -11 14 -83 26 -160 43 -292 114 -611 310 -1400 130 -522 208 -862 266 -1165
l37 -195 5 -451 6 -451 28 -41 c15 -23 46 -54 69 -69 39 -26 49 -28 152 -29
181 -2 411 -51 733 -155 166 -53 345 -100 463 -121 111 -19 377 -17 475 5 107
23 198 68 225 112 23 37 50 149 50 210 0 54 -57 170 -106 216 -93 88 -191 135
-459 224 -220 72 -390 147 -525 230 -85 52 -102 59 -161 63 -52 3 -76 0 -117
-18 -86 -37 -125 -93 -187 -267 -47 -132 -50 -134 -122 -99 -95 46 -218 133
-269 189 -49 54 -94 137 -94 173 0 11 -6 34 -14 50 -8 16 -17 57 -21 91 -7 60
-6 62 17 67 12 3 201 22 418 42 217 20 417 39 443 42 l49 4 -6 67 c-4 36 -31
415 -62 841 -78 1111 -112 1496 -166 1904 l-22 168 34 28 c18 15 30 32 27 38
-5 6 1 8 15 4 17 -4 20 -2 15 11 -4 10 -2 16 6 14 7 -1 11 3 10 10 -2 7 3 10
11 7 17 -7 40 22 32 42 -4 10 -1 14 6 11 14 -4 60 51 53 64 -3 4 1 9 7 12 10
3 10 10 -1 28 -12 21 -12 22 1 12 12 -10 16 -7 26 22 19 50 23 97 9 88 -7 -3
-4 3 6 14 21 24 23 40 2 23 -20 -17 -19 -6 1 15 14 13 14 18 2 32 -7 10 -8 14
-1 10 7 -5 13 1 15 14 3 19 10 21 80 24 88 4 83 10 93 -100 4 -38 17 -128 31
-200 43 -235 71 -338 349 -1295 151 -520 300 -1088 397 -1520 l24 -105 55 -3
c63 -3 941 55 978 65 23 6 23 8 17 87 -167 2187 -311 3125 -553 3599 -97 189
-156 237 -523 421 -439 219 -1060 473 -1593 650 l-198 66 -3099 0 -3100 0 0
-885z"/>
<path d="M10288 7603 c-4 -2456 -7 -2191 19 -2238 45 -83 114 -125 208 -125
95 0 169 45 206 125 18 38 19 112 19 1943 l0 1902 -225 0 -225 0 -2 -1607z"/>
<path d="M14853 6281 c-102 -26 -168 -102 -209 -241 -47 -158 -58 -185 -78
-188 -30 -6 -236 103 -309 163 -73 60 -123 129 -133 185 -12 63 -17 55 -45
-66 -43 -179 -61 -315 -57 -413 3 -77 7 -94 33 -136 52 -84 126 -108 430 -140
169 -18 347 -51 545 -100 289 -72 345 -80 580 -80 191 0 225 3 304 23 234 59
288 118 290 312 0 79 -2 89 -33 143 -42 72 -112 134 -204 179 -97 48 -140 62
-362 118 -218 54 -338 97 -515 181 -126 61 -180 74 -237 60z"/>
<path d="M41045 5724 c-174 -36 -407 -65 -615 -74 -298 -15 -307 -16 -326 -46
-25 -37 -6 -93 105 -309 153 -296 168 -344 196 -612 31 -298 21 -287 145 -190
188 147 282 200 560 316 255 106 257 107 278 148 52 102 69 327 33 442 -25 79
-97 179 -179 247 -102 85 -124 93 -197 78z"/>
<path d="M53835 5464 c-21 -8 -414 -75 -648 -110 -133 -20 -245 -39 -248 -42
-8 -8 -35 -271 -45 -433 l-7 -107 344 -6 c189 -3 653 -9 1032 -12 l687 -6 0
66 c0 136 -64 257 -177 333 -85 56 -185 93 -430 157 -225 59 -326 92 -415 137
-55 28 -72 32 -93 23z"/>
</g>
</svg>
